<svg width="665" height="574" viewBox="0 0 665 574" fill="none" xmlns="http://www.w3.org/2000/svg">
<path fill-rule="evenodd" clip-rule="evenodd" d="M245.958 79.172C321.132 61.0086 395.297 -0.905884 462.489 37.389C536.093 79.3391 563.499 173.641 560.249 258.299C557.127 339.611 512.78 413.54 446.25 460.393C384.023 504.215 304.618 510.247 231.256 489.986C161.78 470.798 108.082 421.134 74.0499 357.597C37.4458 289.259 2.37723 204.682 43.105 138.719C82.0561 75.6329 173.89 96.5848 245.958 79.172Z" fill="#393E46"/>
<path fill-rule="evenodd" clip-rule="evenodd" d="M297.845 97.242C373.02 79.0786 447.185 17.1641 514.376 55.459C587.981 97.4092 615.386 191.712 612.136 276.369C609.015 357.681 564.668 431.61 498.138 478.463C435.911 522.285 356.506 528.317 283.143 508.056C213.667 488.868 159.97 439.204 125.938 375.667C89.3335 307.329 54.2649 222.752 94.9927 156.789C133.944 93.7029 225.777 114.655 297.845 97.242Z" fill="#00ADB5"/>
<path d="M244.586 498.673C244.586 498.673 251.505 513.318 274.414 518.81C284.69 527.386 296.731 533.59 309.679 536.981C309.679 536.981 348.714 562.071 390.575 526.051C390.575 526.051 416.58 522.094 419.945 509.603C420.053 509.603 348.202 524.813 244.586 498.673Z" fill="#393E46"/>
<path d="M343.465 523.359C459.433 523.359 553.443 429.349 553.443 313.38C553.443 197.412 459.433 103.402 343.465 103.402C227.497 103.402 133.486 197.412 133.486 313.38C133.486 429.349 227.497 523.359 343.465 523.359Z" fill="#00ADB5"/>
<mask id="mask0_10_29" style="mask-type:luminance" maskUnits="userSpaceOnUse" x="135" y="63" width="428" height="465">
<path d="M563 333.113C563 422.3 505.014 481.175 427.052 509.576C402.985 518.379 378.596 527.774 351.971 527.963C322.359 528.178 286.636 519.24 253.066 499.777C192.657 464.78 135.532 407.979 135.532 333.113C135.532 217.14 233.926 63 351.971 63C524.5 63 563 217.194 563 333.113Z" fill="white"/>
</mask>
<g mask="url(#mask0_10_29)">
<path d="M194.137 300.432C190.229 300.49 186.411 301.611 183.091 303.674C179.772 305.737 177.076 308.664 175.293 312.142C168.832 324.364 180.462 339.789 183.746 344.177C186.937 348.061 191.455 350.622 196.426 351.365C196.426 351.365 192.172 314.727 194.137 300.432Z" fill="#FCD8C0"/>
<path d="M193.088 302.505C193.088 302.505 172.009 306.462 175.912 324.876C177.067 330.28 179.278 335.402 182.42 339.948C185.562 344.494 189.571 348.375 194.218 351.365C194.218 351.365 180.462 349.265 174.055 325.899C167.809 303.42 198.283 297.498 198.283 297.498L193.088 302.505Z" fill="#F4A67B"/>
<path d="M261.223 420.658C261.223 420.658 261.223 484.083 244.075 529.955C241.14 537.869 248.059 546.107 256.512 546.107L416.93 548.072C418.774 548.1 420.603 547.734 422.294 546.998C423.985 546.262 425.499 545.173 426.736 543.804C427.972 542.435 428.901 540.818 429.462 539.061C430.023 537.304 430.201 535.448 429.987 533.616C427.025 508.122 421.507 454.82 422.449 418.02L261.223 420.658Z" fill="#45AD9B"/>
<path d="M216.939 372.767C216.939 372.767 252.42 436.864 340.773 438.91C429.125 440.956 461.914 394.976 468.779 381.543L482.239 226.993L385.057 145.613L264.911 165.507C264.911 165.507 208.378 243.791 209.105 243.28C209.832 242.768 209.859 330.906 209.105 330.125C208.351 329.344 216.939 372.767 216.939 372.767Z" fill="#FCD8C0"/>
<path d="M394.748 251.975C394.748 251.975 411.439 262.743 426.568 252.541C426.568 252.541 437.497 258.975 461.214 250.064L455.507 237.896L447.7 239.457L415.961 241.988L394.748 251.975Z" fill="#F4A67B"/>
<path d="M386.429 435.222C386.429 435.222 439.974 415.22 452.653 391.665L447.592 406.983C447.592 406.983 421.48 430.026 386.429 435.222Z" fill="#F4A67B"/>
<path d="M274.845 253.806L272.153 245.73L270.941 245.945L267.145 235.365L242.379 239.619C243.375 238.273 244.371 236.927 245.421 235.85L223.534 224.086L210.963 247.56L211.878 312.169L215.754 321.376C218.807 301.827 223.61 282.591 230.103 263.901C230.318 263.47 234.114 255.636 241.894 256.094C252.927 257.268 264.08 256.493 274.845 253.806Z" fill="#F4A67B"/>
<path d="M289.462 257.009C289.462 257.009 326.451 250.925 359.886 188.712L351.352 164.484L330.489 172.291L289.462 257.009Z" fill="#F4A67B"/>
<path d="M411.288 306.06C411.288 306.06 387.391 307.843 387.004 327.624C386.618 347.404 413.994 345.977 413.994 345.977C413.994 345.977 433.318 347.21 432.996 326.91C432.674 306.611 419.308 305.67 411.288 306.06Z" fill="#3B2621"/>
<path d="M274.695 304.081C274.695 304.081 298.609 305.819 298.996 325.094C299.383 344.368 272.02 342.978 272.02 342.978C272.02 342.978 252.682 344.21 253.004 324.399C253.326 304.587 266.637 303.607 274.695 304.081Z" fill="#3B2621"/>
<path d="M285.425 314.003C286.406 313.975 287.383 314.133 288.299 314.469C289.215 314.806 290.05 315.313 290.757 315.962C291.463 316.611 292.025 317.388 292.41 318.246C292.796 319.105 292.996 320.029 293 320.963C293 325.52 290.669 327.614 284.712 327.922C283.699 328.075 282.663 328.003 281.684 327.712C280.705 327.422 279.809 326.921 279.067 326.247C278.324 325.574 277.755 324.747 277.404 323.83C277.052 322.914 276.928 321.932 277.04 320.963C277.234 317.822 278.303 314.065 285.425 314.003Z" fill="white"/>
<path d="M336.6 331.121C336.438 336.505 335.712 341.701 335.308 346.869V347.812C335.308 348.162 335.308 348.431 335.308 348.565C335.315 348.713 335.355 348.857 335.425 348.988C335.494 349.118 335.593 349.231 335.712 349.319C336.648 349.816 337.693 350.075 338.754 350.073C341.257 350.261 343.922 350.073 346.641 350.073C344.147 351.191 341.496 351.917 338.78 352.227C337.199 352.451 335.587 352.139 334.204 351.338C333.777 351.047 333.417 350.669 333.147 350.228C332.878 349.787 332.706 349.294 332.643 348.781C332.6 348.369 332.6 347.954 332.643 347.542V346.52C333.247 341.229 334.579 336.048 336.6 331.121Z" fill="#F9AB64"/>
<path d="M300.85 382.97C300.85 382.97 356.656 378.582 386.268 373.548C386.268 373.548 388.583 413.336 344.138 415.786C299.692 418.235 298.4 399.633 300.85 382.97Z" fill="#361212"/>
<path d="M302.653 382.835C303.786 386.893 305.171 390.876 306.799 394.761C308.737 398.853 341.796 399.283 385.003 384.854C385.991 381.17 386.418 377.359 386.268 373.548C386.268 373.548 314.364 381.57 302.653 382.835Z" fill="#EEEEEE"/>
<path d="M324.055 415.193C324.055 415.193 339.48 396.161 376.98 401.356C376.98 401.356 364.57 421.385 324.055 415.193Z" fill="#F0678E"/>
<path d="M216.239 337.555C216.239 337.555 218.77 391.557 285.936 419.312C349.952 445.775 382.849 435.895 382.849 435.895C382.849 435.895 332.158 447.578 283.728 427.55C236.16 407.844 223.804 382.297 223.804 382.297L214.22 338.497L216.239 337.555Z" fill="#F4A67B"/>
<path d="M228.138 236.2C228.138 236.2 236.698 254.129 265.826 245.164C265.826 245.164 266.553 257.736 283.621 258.086C300.688 258.436 343.734 210.706 346.857 175.198C346.857 175.198 352.241 229.82 394.748 251.868C394.748 251.868 412.758 261.667 424.629 248.341C424.629 248.341 444.658 254.425 454.996 242.015C469.603 286.571 468.463 334.793 451.765 378.609C451.765 378.609 437.955 412.071 457.849 420.47C457.849 420.47 466.41 424.266 481.216 378.501C496.022 332.736 503.506 293.083 504.475 269.447C505.337 248.26 505.444 147.363 379.08 120.227C379.08 120.227 390.252 102.54 383.28 100.791C376.307 99.0408 366.616 108.678 358.271 116.485C358.271 116.485 354.017 98.7177 344.326 101.356C334.635 103.994 339.669 118.612 339.669 118.612C339.669 118.612 326.397 118.8 319.425 119.393C307.546 120.427 295.813 122.737 284.428 126.284C263.137 132.801 244.24 145.451 230.103 162.654C205.875 191.539 193.33 220.021 188.161 268.101C182.992 316.18 188.673 376.374 211.932 407.656C211.932 407.656 217.504 413.336 222.161 412.178C226.819 411.021 231.207 401.841 222.538 373.548C213.87 345.254 214.193 310.742 219.362 274.561C224.53 238.381 228.138 236.2 228.138 236.2Z" fill="#373737"/>
<path d="M258.084 314C254.984 311.321 252.456 308.097 250.639 304.506C248.512 300.107 248.612 298.43 250.041 297.48C252.235 296.056 255.425 297.86 258.549 302.069C260.217 304.292 262.038 306.406 264 308.399C261.706 309.929 259.705 311.824 258.084 314Z" fill="#3B2621"/>
<path d="M270.567 306C269.811 301.869 269.811 297.634 270.567 293.503C271.968 286.754 276.95 288.098 277.635 288.129C278.32 288.16 282.306 289.41 280.562 295.783C278.819 302.157 279.535 304.719 279.535 304.719C276.49 304.525 273.437 304.961 270.567 306Z" fill="#3B2621"/>
<path d="M287 309.068C287 309.068 291.442 302.845 293.754 300.284C296.065 297.723 298.016 297.658 299.487 298.436C300.958 299.214 302.098 301.678 299.217 305.276C296.698 308.69 293.992 311.937 291.112 315C290.096 312.763 288.701 310.751 287 309.068Z" fill="#3B2621"/>
<path d="M391.975 316C389.166 313.009 386.807 309.633 384.969 305.977C381.785 299.673 383.09 297.277 384.523 296.521C387.708 294.535 390.892 298.57 393.822 302.825C395.742 305.465 397.804 308.001 400 310.421C396.971 311.723 394.24 313.621 391.975 316Z" fill="#3B2621"/>
<path d="M410.356 306.525C409.78 302.544 409.904 298.488 410.724 294.553C412.104 287.712 417.011 289.106 417.686 289.137C418.361 289.169 422.287 290.404 420.569 296.865C419.484 300.119 419.128 303.584 419.526 307C416.493 306.519 413.42 306.359 410.356 306.525Z" fill="#3B2621"/>
<path d="M426 310.293C426 310.293 432.29 302.716 434.88 300.211C437.47 297.706 439.656 297.675 441.305 298.436C442.953 299.197 444.231 301.606 441.002 305.125C437.773 308.645 433.4 313.686 430.608 316C429.47 313.84 427.906 311.903 426 310.293Z" fill="#3B2621"/>
<path d="M486.654 306.597C486.654 306.597 507.383 300.486 515.243 313.327C523.104 326.168 511.286 345.9 503.291 355.215C495.295 364.529 485.092 359.576 478.12 355.538C478.12 355.538 482.185 333.113 486.654 306.597Z" fill="#FCD8C0"/>
<path d="M385.649 121.842C385.649 121.842 391.302 103.213 408.746 98.6908C408.746 98.6908 447.054 92.6338 460.353 100.683C472.736 108.167 476.263 110.455 487.112 129.084C497.96 147.713 502.025 157.243 484.85 188.712C484.85 188.712 471.902 164.161 438.601 142.948C407.562 126.392 385.649 121.842 385.649 121.842Z" fill="#373737"/>
<path d="M411.035 117.185C417.414 111.932 425.467 109.143 433.729 109.324C435.824 109.436 437.892 109.853 439.866 110.563C441.832 111.343 443.581 112.016 445.52 112.689C449.43 113.964 453.145 115.776 456.557 118.073C458.239 119.259 459.848 120.544 461.376 121.923C462.89 123.354 464.269 124.922 465.495 126.607C467.93 129.898 470.014 133.435 471.713 137.16C475.411 144.512 477.425 152.595 477.609 160.823C477.241 156.808 476.336 152.86 474.917 149.086C473.626 145.302 472.052 141.621 470.206 138.075C468.413 134.525 466.315 131.138 463.933 127.953C462.752 126.397 461.436 124.947 460.003 123.619C458.522 122.327 456.934 121.115 455.346 119.958C452.094 117.699 448.554 115.888 444.82 114.574C442.989 113.901 440.97 113.093 439.193 112.366C437.376 111.672 435.475 111.219 433.54 111.02C429.607 110.658 425.642 111.097 421.884 112.312C418.061 113.432 414.411 115.071 411.035 117.185Z" fill="#222831"/>
<path d="M437.174 125.584C439.255 125.45 441.344 125.641 443.366 126.15C445.462 126.597 447.448 127.457 449.208 128.68C450.958 129.969 452.386 131.646 453.38 133.58C454.287 135.486 454.799 137.555 454.888 139.664C454.08 137.791 453.116 135.99 452.007 134.28C450.888 132.734 449.534 131.371 447.996 130.241C446.389 129.153 444.664 128.25 442.854 127.549C441.024 126.984 439.112 126.257 437.174 125.584Z" fill="#222831"/>
<path d="M407.158 196.681C407.158 196.681 434.509 224.49 427.671 249.149C426.625 249.088 425.597 248.851 424.629 248.449C422.904 230.263 416.919 212.74 407.158 197.3" fill="#222831"/>
<path d="M266.311 247.56C274.427 240.596 280.868 231.891 285.155 222.094C285.155 222.094 287.228 214.771 286.017 211.326C287.389 212.51 267.172 245.326 257.885 247.103L265.961 245.191C265.968 245.993 266.086 246.79 266.311 247.56Z" fill="#222831"/>
<path d="M338.188 133.903C339.865 133.553 341.611 133.81 343.115 134.629C343.905 135.027 344.602 135.586 345.161 136.272C345.461 136.616 345.688 137.018 345.827 137.453C345.966 137.888 346.014 138.348 345.968 138.802C345.397 138.278 344.764 137.826 344.084 137.456L342.172 136.46C340.758 135.751 339.422 134.893 338.188 133.903Z" fill="#222831"/>
<path d="M355.579 135.922C356.584 135.123 357.75 134.554 358.998 134.253C359.678 134.021 360.397 133.928 361.114 133.979C361.831 134.03 362.53 134.223 363.17 134.549C364.215 135.285 365.126 136.196 365.862 137.241C366.62 138.252 367.227 139.367 367.666 140.552C366.623 139.882 365.625 139.144 364.678 138.344C363.789 137.618 362.82 136.729 361.986 136.245C361.071 135.847 360.073 135.681 359.078 135.76L355.579 135.922Z" fill="#222831"/>
<path d="M396.659 178.16C396.843 179.707 397.149 181.237 397.574 182.736C398.005 185.832 402.662 186.424 402.312 182.036C402.313 181.228 402.152 180.428 401.837 179.683C401.523 178.939 401.062 178.265 400.482 177.702C398.005 174.848 396.659 178.16 396.659 178.16Z" fill="#222831"/>
<path d="M280.659 257.978C300.888 247.718 317.717 231.824 329.116 212.214C342.576 189.332 341.822 174.822 341.634 171.268C341.622 171.096 341.647 170.924 341.707 170.763C341.768 170.602 341.864 170.456 341.987 170.336C342.11 170.215 342.257 170.123 342.42 170.066C342.582 170.008 342.755 169.987 342.926 170.003C345.107 170.191 345.941 172.049 350.302 170.245C350.487 170.17 350.687 170.141 350.886 170.162C351.084 170.183 351.274 170.252 351.439 170.364C351.605 170.476 351.74 170.627 351.832 170.803C351.925 170.98 351.973 171.176 351.971 171.376C351.971 182.871 356.952 240.265 411.196 255.663C411.196 255.663 397.548 260.078 376.2 239.7C358.486 222.497 350.356 197.192 347.368 182.655C347.099 181.39 346.237 181.282 346.049 182.655C344.38 196.062 308.71 262.77 280.659 257.978Z" fill="#222831"/>
<path d="M288.439 236.2C291.641 235.178 294.726 233.825 297.646 232.162C291.696 238.386 285.027 243.88 277.779 248.529C277.779 248.529 296.623 240.723 304.134 226.993C298.663 229.634 293.414 232.713 288.439 236.2Z" fill="#222831"/>
<path d="M232.391 195.819C232.391 195.819 210.855 233.158 250.832 247.883C250.832 247.883 229.295 249.929 223.023 225.701C219.012 210.464 232.391 195.819 232.391 195.819Z" fill="#222831"/>
<path d="M477.743 483.248C496.857 481.31 494.515 459.423 494.515 459.423C493.438 460.635 488.861 470.972 469.344 459.073C449.827 447.175 448.266 409.809 448.266 409.809C447.943 408.813 447.593 406.983 447.593 406.983C438.924 415.22 416.957 425.827 416.957 425.827C429.421 483.786 468.294 491.378 471.875 483.652C473.839 483.708 475.805 483.573 477.743 483.248Z" fill="#373737"/>
<path d="M442.02 411.451C442.02 411.451 438.709 456.893 474.513 473.664C474.513 473.664 452.277 469.788 441.939 436.73C441.939 436.73 443.42 452.451 451.254 460.958C451.254 460.958 437.632 456.031 430.794 418.504C430.821 418.504 440.566 413.443 442.02 411.451Z" fill="#222831"/>
<path d="M428.587 442.921C428.587 442.921 429.475 468.872 459.168 485.078C460.736 485.577 462.351 485.911 463.987 486.075C463.987 486.075 436.071 476.949 431.225 442.571L428.587 442.921Z" fill="#222831"/>
<path d="M478.659 360.034C489.669 332.763 486.735 298.87 486.735 298.87C486.735 298.87 483.047 338.174 474.97 358.714C475.391 359.269 475.963 359.689 476.618 359.923C477.273 360.157 477.982 360.196 478.659 360.034Z" fill="#222831"/>
<path d="M460.837 243.145C465.389 237.25 468.363 230.292 469.479 222.928C472.171 191.324 434.724 172.991 434.724 172.991C434.724 172.991 482.508 203.896 455.049 242.122C455.049 242.122 466.194 279.811 465.01 316.046C463.825 352.28 453.488 372.067 448.858 387.788C444.604 402.487 448.4 410.348 448.4 410.348C448.4 410.348 455.83 395.245 466.598 343.316C475.913 298.628 464.283 254.587 460.837 243.145Z" fill="#222831"/>
<path d="M346.426 101.221C346.426 101.221 337.758 102.244 340.18 112.878C340.963 117.156 342.237 121.329 343.976 125.315H342.199C342.199 125.315 337.354 115.704 338.592 108.059C338.643 107.091 338.888 106.142 339.312 105.27C339.736 104.398 340.331 103.62 341.062 102.982C341.792 102.344 342.644 101.86 343.565 101.557C344.487 101.255 345.459 101.141 346.426 101.221Z" fill="#222831"/>
<path d="M354.152 121.062C358.076 116.511 362.401 112.321 367.074 108.544C373.373 103.725 378.434 99.0946 384.034 101.194C384.034 101.194 377.223 100.602 368.043 109.701C358.863 118.8 355.148 122.031 355.148 122.031L354.152 121.062Z" fill="#222831"/>
<path d="M342.199 125.315L340.638 118.423C340.638 118.423 275.76 113.255 236.16 156.112C236.16 156.112 206.117 180.717 193.572 235.258C189.95 251.707 187.69 268.428 186.815 285.249C184.123 379.47 211.932 407.79 211.932 407.79C213.775 410.052 216.326 411.626 219.173 412.259C184.742 376.32 191.634 281.157 191.822 279.272C196.614 234.881 222.431 122.031 342.199 125.315Z" fill="#222831"/>
<path d="M411.035 130.08C415.655 129.067 420.387 128.65 425.114 128.842C433.19 129.138 443.958 134.01 448.669 140.525C451.488 144.287 453.119 148.806 453.353 153.501C440.399 143.772 426.157 135.89 411.035 130.08Z" fill="#EF4748"/>
<path d="M412.192 131.049C412.192 131.049 428.748 128.357 436.205 133.283C436.205 133.283 422.045 130.861 416.984 133.014L412.192 131.049Z" fill="#BF333A"/>
<path d="M385.649 122.031C395.635 124.391 405.441 127.458 414.992 131.211C424.612 134.933 433.913 139.435 442.801 144.671C447.229 147.32 451.482 150.251 455.534 153.447C459.564 156.684 463.343 160.22 466.84 164.026C473.863 171.54 479.914 179.906 484.85 188.928C481.99 184.701 478.917 180.622 475.643 176.706C472.441 172.755 469.026 168.98 465.414 165.399C461.823 161.83 458.04 158.46 454.08 155.304C450.098 152.171 445.926 149.285 441.589 146.663C432.838 141.466 423.735 136.888 414.346 132.96C409.689 130.941 404.951 129.003 400.186 127.226C395.421 125.45 390.441 123.673 385.649 122.031Z" fill="#222831"/>
<path d="M418.406 315.003C419.387 314.975 420.364 315.133 421.28 315.469C422.196 315.805 423.032 316.313 423.739 316.961C424.447 317.61 425.011 318.387 425.4 319.246C425.788 320.105 425.992 321.03 426 321.965C426 326.525 423.673 328.62 417.695 328.928C416.684 329.074 415.653 328.998 414.678 328.705C413.704 328.412 412.812 327.91 412.073 327.238C411.334 326.566 410.765 325.741 410.412 324.827C410.059 323.913 409.93 322.934 410.036 321.965C410.262 318.823 411.264 315.065 418.406 315.003Z" fill="white"/>
<path d="M304.295 383.643C304.295 383.643 306.772 391.719 307.499 393.576C308.226 395.434 308.253 395.299 310.326 395.461L306.664 383.508C305.878 383.33 305.057 383.377 304.295 383.643Z" fill="#84CBD3"/>
<path d="M388.61 122.892C391.946 114.94 398.196 108.564 406.081 105.071C419.541 99.3638 449.154 94.6528 482.266 121.089C477.593 111.947 469.869 104.729 460.433 100.683C443.824 92.9837 391.114 90.2647 385.729 121.842L388.61 122.892Z" fill="#222831"/>
<path d="M352.294 401.437C349.502 403.785 347.431 406.874 346.318 410.348C346.318 410.348 353.344 401.599 362.04 400.468C358.767 400.464 355.502 400.789 352.294 401.437Z" fill="#BF333A"/>
<path opacity="0.82" d="M245.959 376.374C253.333 376.374 259.312 373.325 259.312 369.563C259.312 365.802 253.333 362.753 245.959 362.753C238.585 362.753 232.607 365.802 232.607 369.563C232.607 373.325 238.585 376.374 245.959 376.374Z" fill="#F4AECE"/>
<path opacity="0.82" d="M432.463 376.374C439.838 376.374 445.816 373.325 445.816 369.563C445.816 365.802 439.838 362.753 432.463 362.753C425.089 362.753 419.111 365.802 419.111 369.563C419.111 373.325 425.089 376.374 432.463 376.374Z" fill="#F4AECE"/>
</g>
<path d="M394.478 422.462C394.478 422.462 375.365 428.492 368.473 457.781C368.473 457.781 362.443 475.845 355.902 476.895C346.84 478.327 338.201 481.718 330.585 486.833C322.969 491.947 316.56 498.661 311.806 506.507C311.806 506.507 303.73 519.59 311.537 530.574C319.344 541.557 369.039 545.945 383.764 522.955C398.49 499.965 400.562 494.77 406.377 478.887C409.93 469.57 412.862 460.028 415.153 450.324C416.849 443.81 418.007 415.705 394.478 422.462Z" fill="#50C1B5" stroke="#46B4A4" stroke-width="0.1" stroke-miterlimit="10"/>
<path d="M247.897 410.859C243.864 416.356 241.59 422.944 241.374 429.758C241.158 436.572 243.01 443.291 246.686 449.032C248.321 451.438 249.329 454.214 249.62 457.108C249.62 460.985 252.716 486.721 261.842 501.473C270.968 516.225 294.442 525.136 310.541 529.174C309.045 526.039 308.253 522.614 308.221 519.14C308.188 515.666 308.916 512.228 310.352 509.065C315.36 498.754 328.389 484.675 344.864 480.341C344.864 480.341 296.408 473.557 293.393 458.589C290.377 443.621 287.766 429.38 287.766 429.38C273.705 425.024 260.295 418.794 247.897 410.859Z" fill="#50C1B5" stroke="#46B4A4" stroke-width="0.1" stroke-miterlimit="10"/>
<path d="M302.222 488.255L300.257 489.547L299.396 482.171C299.396 482.171 274.198 498.646 258.665 488.255L259.608 492.778C259.608 492.778 270.16 501.957 290.431 496.493C290.431 496.493 296.65 494.877 298.938 498.592C299.2 499.037 299.497 499.46 299.827 499.858C303.021 503.336 306.457 506.583 310.11 509.576C311.657 505.663 314.09 502.162 317.217 499.346L302.222 488.255Z" fill="#00ADB5"/>
<path d="M408.45 423.162C400.159 419.608 391.733 420.631 381.341 431.857C370.95 443.083 370.143 453.393 368.473 457.781C366.461 462.979 363.974 467.981 361.043 472.722C359.44 475.233 357.202 477.275 354.556 478.645C337.542 478.887 321.013 495.954 321.013 495.954C321.013 495.954 338.377 481.66 356.009 482.171C356.009 482.171 362.255 482.629 366.293 473.53C370.331 464.431 369.9 462.519 371.839 458.643C373.777 454.766 387.318 415.57 412.811 430.538L408.45 423.162Z" fill="#00ADB5"/>
<path d="M247.897 410.859C243.774 416.316 241.444 422.917 241.227 429.753C241.01 436.589 242.917 443.325 246.686 449.032C248.212 451.492 249.211 454.242 249.62 457.108C249.97 461.066 253.362 493.074 264.372 504.973C275.383 516.871 291.158 524.651 310.541 529.201C310.541 529.201 277.563 519.994 266.042 502.092C254.52 484.19 255.839 461.254 255.839 456.947C255.839 452.639 252.931 449.221 251.262 445.021C249.593 440.821 245.151 424.75 261.68 418.935L247.897 410.859Z" fill="#00ADB5"/>
<path d="M247.413 462.008C244.755 455.652 243.356 448.841 243.294 441.952C243.289 441.637 243.373 441.328 243.536 441.059C243.699 440.79 243.935 440.573 244.216 440.432C244.498 440.291 244.813 440.233 245.126 440.264C245.439 440.294 245.737 440.413 245.986 440.606C247.784 442.006 249.734 443.198 251.801 444.16C254.493 445.182 256.969 446.179 258.342 446.852C253.055 450.487 249.193 455.843 247.413 462.008Z" fill="#222831"/>
<path d="M263.915 438.587C263.915 438.587 242.728 445.452 247.924 467.526C253.12 489.601 269.191 503.438 295.115 491.297C320.582 479.344 311.106 455.655 308.818 450.324C306.53 444.994 295.788 427.496 263.915 438.587Z" fill="#FFF0E5"/>
<path d="M398.84 496.789C400.272 497.627 401.885 498.111 403.542 498.2C405.2 498.289 406.855 497.98 408.369 497.3C414.076 495.093 422.529 488.47 427.456 484.271C432.382 480.071 435.855 480.637 440.916 483.059C445.977 485.482 453.111 490.436 456.611 492.266C460.11 494.097 460.568 499.212 454.942 501.634C449.315 504.057 445.654 504.676 439.705 498.592C433.755 492.508 429.959 495.55 426.998 497.516C424.037 499.481 417.361 510.195 393.132 507.368L398.84 496.789Z" fill="#FFF0E5"/>
<path d="M437.04 481.552C437.04 481.552 436.367 484.379 435.72 486.102C435.074 487.824 434.321 489.413 435.72 490.463C437.12 491.513 437.228 490.22 438.412 490.463C439.597 490.705 438.978 492.589 440.216 492.939C441.454 493.289 443.581 493.72 447.404 486.586C444.428 484.062 440.863 482.331 437.04 481.552Z" fill="#EF9337"/>
<path d="M399.136 497.004C398.895 498.357 398.469 499.671 397.87 500.908C397.036 502.496 396.417 503.115 400.32 504.838C404.224 506.561 403.954 505.215 406.646 505.969C409.338 506.722 421.21 501.85 423.741 499.696C425.976 497.725 427.614 495.167 428.471 492.312C429.327 489.458 429.367 486.42 428.587 483.544C428.587 483.544 425.033 486.236 416.095 492.616C410.792 496.331 404.574 499.158 399.136 497.004Z" fill="#222831"/>
<path d="M260.442 442.194C260.387 442.191 260.332 442.176 260.283 442.151C260.233 442.126 260.189 442.091 260.154 442.048C260.118 442.005 260.092 441.955 260.077 441.902C260.062 441.848 260.058 441.792 260.065 441.737C260.254 439.879 261.088 432.045 262.192 424.723C262.407 423.242 263.565 422.677 264.399 423.673C265.847 425.404 267.431 427.016 269.137 428.492C271.829 430.619 276.406 435.06 277.698 436.299C277.781 436.407 277.826 436.539 277.826 436.676C277.826 436.812 277.781 436.944 277.698 437.053C276.675 438.506 272.233 443.217 260.442 442.194Z" fill="#222831"/>
<path d="M291.616 461.954C293.598 458.448 296.219 455.344 299.342 452.801C300.907 451.525 302.562 450.364 304.295 449.328C306.008 448.275 307.809 447.374 309.679 446.636C306.205 448.554 302.916 450.789 299.854 453.312C298.332 454.564 296.885 455.904 295.519 457.323C294.115 458.777 292.811 460.324 291.616 461.954Z" fill="#222831"/>
<path d="M262.246 458.67C262.246 458.67 268.007 461.819 279.825 456.947C287.416 453.797 288.762 451.563 288.735 450.217C288.728 450.092 288.746 449.967 288.789 449.85C288.832 449.732 288.898 449.625 288.984 449.534C289.069 449.444 289.173 449.371 289.288 449.322C289.402 449.273 289.526 449.247 289.651 449.247C290.953 449.481 292.294 449.351 293.527 448.871C301.119 445.102 299.719 440.121 296.219 437.564C292.72 435.007 284.644 434.872 284.644 434.872C278.264 434.273 271.832 435.082 265.799 437.241C255.731 441.333 243.105 449.355 248.651 469.545C252.627 469.644 256.513 468.349 259.635 465.884C260.629 464.968 261.392 463.829 261.86 462.561C262.328 461.293 262.488 459.931 262.327 458.589" fill="#222831"/>
<path d="M257.777 451.563C258.944 452.087 259.996 452.838 260.873 453.77C261.818 454.723 262.488 455.913 262.811 457.216C263.077 458.511 263.022 459.851 262.649 461.119C262.336 462.371 261.706 463.52 260.819 464.457C261.228 463.318 261.499 462.134 261.627 460.931C261.803 459.798 261.803 458.645 261.627 457.512C260.831 455.253 259.512 453.214 257.777 451.563Z" fill="#EF9337"/>
<path d="M303.084 481.175C303.084 481.175 294.254 491.539 303.865 501.15L310.541 506.696C310.541 506.696 328.201 481.067 355.256 479.264C358.875 476.04 362.036 472.335 364.651 468.253C364.651 468.253 359.024 450.163 311.51 457.727L303.084 481.175Z" fill="#FFF0E5"/>
<path d="M328.927 455.843C329.75 458.452 330.096 461.187 329.95 463.919C329.6 467.984 328.874 471.753 332.642 473.206C336.411 474.66 335.711 471.834 338.027 471.86C340.342 471.887 340.476 476.087 343.411 476.087C346.345 476.087 351.056 476.921 355.04 459.585C354.906 459.639 346.318 454.928 328.927 455.843Z" fill="#EF9337"/>
<path d="M309.06 450.782C307.975 452.07 307.174 453.573 306.71 455.192C306.246 456.811 306.13 458.51 306.368 460.177C307.391 465.561 310.595 462.142 310.029 467.096C311.18 464.226 311.667 461.134 311.456 458.05C310.978 455.534 310.172 453.09 309.06 450.782Z" fill="#EF9337"/>
<path d="M311.51 457.62C312.034 460.494 312.034 463.44 311.51 466.315C311.015 469.196 310.286 472.032 309.33 474.795C308.335 477.56 306.987 480.184 305.318 482.602C303.681 485.009 301.704 487.167 299.45 489.009C301.369 486.879 303.082 484.571 304.565 482.117C306.051 479.68 307.269 477.09 308.199 474.391C309.142 471.694 309.925 468.943 310.541 466.153C311.227 463.362 311.553 460.494 311.51 457.62Z" fill="#D3D3D3"/>
<path d="M330.92 487.501C335.344 484.66 340.147 482.458 345.187 480.96C341.768 477.81 330.812 468.792 321.955 470.945C317.406 472.049 319.613 484.863 317.702 485.482C314.525 486.505 311.806 486.317 311.025 489.009C311.025 489.009 309.276 493.262 315.467 500.585C320.253 495.81 325.421 491.434 330.92 487.501Z" fill="#222831"/>
<path d="M264.399 478.671C265.932 478.824 267.48 478.646 268.939 478.149C270.397 477.652 271.731 476.848 272.852 475.791C273.924 474.658 274.905 473.443 275.787 472.157C276.739 470.874 277.551 469.493 278.21 468.038C278.064 469.693 277.568 471.299 276.756 472.749C275.972 474.223 274.964 475.568 273.768 476.733C272.538 477.892 271.012 478.686 269.358 479.028C267.704 479.37 265.987 479.247 264.399 478.671Z" fill="#222831"/>
<path d="M276.514 472.937C276.903 471.293 276.8 469.57 276.218 467.984C276.549 468.294 276.814 468.669 276.994 469.086C277.175 469.503 277.268 469.953 277.267 470.407C277.293 471.309 277.029 472.196 276.514 472.937Z" fill="#222831"/>
<path d="M277.779 469.384C277.954 468.082 277.758 466.757 277.214 465.561C277.488 465.791 277.725 466.064 277.914 466.369C278.094 466.677 278.222 467.014 278.29 467.365C278.365 467.718 278.357 468.084 278.268 468.434C278.18 468.784 278.012 469.109 277.779 469.384Z" fill="#222831"/>
<path d="M260.011 489.601C262.663 489.392 265.329 489.684 267.872 490.463C270.564 491.432 266.445 493.289 266.445 493.289C265.847 493.51 265.208 493.6 264.572 493.554C263.936 493.508 263.317 493.325 262.757 493.02C261.223 491.943 260.119 490.813 260.011 489.601Z" fill="#F38FB9"/>
<path d="M295.062 468.522C297 468.388 298.938 468.173 300.877 467.93C302.815 467.688 304.699 467.392 306.611 466.988C310.444 466.289 314.183 465.151 317.756 463.596C316.065 464.688 314.259 465.591 312.372 466.288C310.528 466.952 308.638 467.483 306.718 467.876C302.879 468.61 298.959 468.827 295.062 468.522Z" fill="#222831"/>
<path d="M351.594 469.976C351.957 470.064 352.298 470.227 352.595 470.454C352.891 470.681 353.137 470.968 353.317 471.295C353.694 472.022 352.537 473.987 352.967 474.903C353.398 475.818 355.013 475.576 355.309 476.329C355.51 477.261 355.51 478.224 355.309 479.156C359.019 476.021 362.193 472.302 364.705 468.146C364.705 468.146 363.143 462.761 354.959 459.612C354.906 459.639 352.429 467.23 351.594 469.976Z" fill="#222831"/>
<path d="M293.527 464.323C296.596 462.438 299.827 460.85 303.057 459.235C306.299 457.635 309.666 456.302 313.125 455.251C311.456 455.978 309.895 456.839 308.253 457.62L303.407 459.989C300.203 461.469 296.946 463.031 293.527 464.323Z" fill="#222831"/>
</svg>
