<svg width="1449" height="566" viewBox="0 0 1449 566" fill="none" xmlns="http://www.w3.org/2000/svg">
<path d="M1383.33 321.48L1381.33 319.74C1381.23 319.668 1381.14 319.576 1381.08 319.47C1381.02 319.363 1380.98 319.243 1380.96 319.119C1380.94 318.995 1380.95 318.87 1380.99 318.75C1381.03 318.63 1381.09 318.518 1381.17 318.42C1381.26 318.33 1381.36 318.256 1381.47 318.2C1381.58 318.149 1381.71 318.122 1381.83 318.12C1381.95 318.12 1382.08 318.148 1382.19 318.2C1382.31 318.25 1382.41 318.325 1382.49 318.42L1383.15 319L1383.73 318.34C1383.89 318.189 1384.11 318.104 1384.33 318.1C1384.55 318.1 1384.77 318.182 1384.93 318.33C1385.09 318.477 1385.2 318.68 1385.22 318.9C1385.24 319.12 1385.18 319.34 1385.05 319.52L1383.33 321.48Z" fill="#2A323D"/>
<path d="M1376.48 315.39L1373.68 312.89C1373.59 312.816 1373.52 312.724 1373.47 312.62C1373.42 312.516 1373.39 312.404 1373.38 312.29C1373.35 312.178 1373.35 312.062 1373.38 311.95C1373.41 311.838 1373.47 311.735 1373.55 311.65C1373.71 311.481 1373.93 311.38 1374.16 311.37C1374.27 311.361 1374.39 311.376 1374.5 311.414C1374.61 311.452 1374.71 311.512 1374.79 311.59L1377.59 314.07C1377.67 314.146 1377.74 314.239 1377.79 314.342C1377.84 314.445 1377.87 314.556 1377.87 314.67C1377.89 314.903 1377.81 315.132 1377.66 315.31C1377.5 315.48 1377.29 315.584 1377.06 315.6C1376.85 315.599 1376.64 315.525 1376.48 315.39ZM1368.8 308.55L1366.01 306.07C1365.9 306.001 1365.82 305.908 1365.75 305.8C1365.69 305.691 1365.65 305.573 1365.63 305.45C1365.6 305.328 1365.6 305.202 1365.63 305.08C1365.66 304.959 1365.72 304.848 1365.81 304.76C1365.89 304.662 1365.99 304.584 1366.1 304.532C1366.22 304.48 1366.34 304.455 1366.47 304.46C1366.59 304.458 1366.72 304.482 1366.83 304.53C1366.94 304.582 1367.05 304.657 1367.13 304.75L1369.92 307.24C1370.01 307.317 1370.08 307.413 1370.13 307.52C1370.18 307.623 1370.21 307.735 1370.22 307.85C1370.24 307.962 1370.24 308.077 1370.22 308.19C1370.18 308.299 1370.12 308.398 1370.04 308.48C1369.89 308.652 1369.67 308.756 1369.44 308.77C1369.21 308.78 1368.98 308.701 1368.8 308.55ZM1361.12 301.72L1358.38 299.26C1358.3 299.182 1358.23 299.088 1358.18 298.983C1358.13 298.878 1358.1 298.765 1358.1 298.65C1358.09 298.535 1358.11 298.42 1358.14 298.312C1358.18 298.203 1358.24 298.104 1358.32 298.02C1358.39 297.929 1358.48 297.857 1358.59 297.81C1358.69 297.761 1358.81 297.731 1358.92 297.72C1359.03 297.701 1359.15 297.701 1359.26 297.72C1359.37 297.761 1359.47 297.818 1359.56 297.89L1362.34 300.37C1362.44 300.439 1362.53 300.531 1362.6 300.638C1362.66 300.745 1362.71 300.865 1362.72 300.99C1362.75 301.112 1362.75 301.238 1362.72 301.36C1362.68 301.482 1362.62 301.594 1362.54 301.69C1362.45 301.781 1362.35 301.856 1362.24 301.91C1362.13 301.959 1362 301.983 1361.88 301.98C1361.76 301.987 1361.63 301.963 1361.52 301.91C1361.4 301.86 1361.3 301.785 1361.22 301.69L1361.12 301.72ZM1353.44 294.89L1350.64 292.4C1350.56 292.321 1350.49 292.23 1350.44 292.13C1350.39 292.026 1350.36 291.914 1350.35 291.8C1350.35 291.685 1350.36 291.57 1350.4 291.46C1350.44 291.349 1350.5 291.248 1350.58 291.16C1350.66 291.077 1350.75 291.009 1350.85 290.96C1350.95 290.911 1351.07 290.881 1351.18 290.87C1351.3 290.867 1351.41 290.884 1351.52 290.92C1351.63 290.958 1351.73 291.02 1351.81 291.1L1354.61 293.58C1354.78 293.735 1354.89 293.953 1354.9 294.186C1354.91 294.418 1354.83 294.646 1354.68 294.82C1354.6 294.903 1354.5 294.974 1354.4 295.03C1354.3 295.082 1354.18 295.11 1354.07 295.11C1353.96 295.121 1353.84 295.108 1353.73 295.07C1353.62 295.032 1353.52 294.97 1353.44 294.89Z" fill="#2A323D"/>
<path d="M1346.6 288.81L1344.6 287.06L1346.36 285.06C1346.52 284.903 1346.73 284.813 1346.96 284.807C1347.18 284.802 1347.4 284.882 1347.56 285.031C1347.73 285.18 1347.83 285.386 1347.85 285.609C1347.87 285.832 1347.81 286.054 1347.67 286.23L1347.08 286.88L1347.74 287.47C1347.83 287.547 1347.9 287.64 1347.95 287.745C1348 287.85 1348.03 287.964 1348.03 288.08C1348.04 288.195 1348.02 288.31 1347.99 288.418C1347.95 288.527 1347.89 288.626 1347.81 288.71C1347.73 288.796 1347.64 288.866 1347.53 288.916C1347.43 288.966 1347.32 288.994 1347.2 289C1346.98 289.009 1346.77 288.942 1346.6 288.81Z" fill="#2A323D"/>
<path d="M1350.7 281.58C1350.61 281.503 1350.54 281.407 1350.49 281.3C1350.44 281.197 1350.41 281.085 1350.4 280.97C1350.38 280.858 1350.38 280.742 1350.4 280.63C1350.43 280.52 1350.49 280.42 1350.57 280.34L1352.99 277.61C1353.15 277.459 1353.36 277.375 1353.58 277.375C1353.81 277.375 1354.02 277.459 1354.18 277.61C1354.35 277.756 1354.45 277.959 1354.48 278.18C1354.5 278.402 1354.44 278.624 1354.3 278.8L1351.89 281.51C1351.81 281.597 1351.72 281.668 1351.62 281.72C1351.51 281.766 1351.4 281.79 1351.28 281.79C1351.16 281.79 1351.05 281.766 1350.94 281.72C1350.85 281.686 1350.77 281.639 1350.7 281.58ZM1357.34 274.1C1357.17 273.941 1357.07 273.722 1357.06 273.49C1357.05 273.376 1357.06 273.262 1357.1 273.154C1357.14 273.045 1357.19 272.946 1357.27 272.86L1359.7 270.13C1359.78 270.047 1359.87 269.979 1359.97 269.93C1360.07 269.881 1360.19 269.851 1360.3 269.84C1360.42 269.841 1360.53 269.858 1360.64 269.89C1360.75 269.928 1360.85 269.99 1360.93 270.07C1361.02 270.146 1361.09 270.237 1361.14 270.34C1361.19 270.443 1361.22 270.556 1361.22 270.67C1361.24 270.782 1361.24 270.898 1361.22 271.01C1361.19 271.122 1361.13 271.225 1361.05 271.31L1358.59 274C1358.44 274.167 1358.23 274.271 1358.01 274.29C1357.77 274.316 1357.53 274.248 1357.34 274.1ZM1364 266.62C1363.91 266.544 1363.84 266.453 1363.79 266.35C1363.74 266.246 1363.71 266.134 1363.7 266.02C1363.68 265.908 1363.68 265.792 1363.7 265.68C1363.74 265.572 1363.8 265.471 1363.87 265.38L1366.29 262.65C1366.45 262.478 1366.67 262.374 1366.9 262.36C1367.01 262.353 1367.13 262.369 1367.24 262.406C1367.35 262.444 1367.44 262.503 1367.53 262.58C1367.62 262.652 1367.69 262.744 1367.74 262.85C1367.8 262.95 1367.83 263.064 1367.83 263.18C1367.85 263.292 1367.85 263.407 1367.83 263.52C1367.79 263.631 1367.73 263.732 1367.65 263.82L1365.23 266.54C1365.15 266.627 1365.06 266.699 1364.96 266.75C1364.86 266.802 1364.74 266.832 1364.63 266.84C1364.4 266.846 1364.18 266.768 1364 266.62ZM1370.65 259.13C1370.57 259.049 1370.5 258.954 1370.45 258.85C1370.4 258.747 1370.37 258.635 1370.36 258.52C1370.35 258.404 1370.37 258.288 1370.41 258.18C1370.45 258.074 1370.51 257.976 1370.59 257.89L1373 255.18C1373.08 255.093 1373.17 255.022 1373.27 254.97C1373.38 254.92 1373.49 254.89 1373.61 254.88C1373.73 254.872 1373.84 254.889 1373.95 254.93C1374.06 254.961 1374.16 255.019 1374.24 255.1C1374.41 255.254 1374.52 255.47 1374.53 255.7C1374.54 255.933 1374.46 256.162 1374.31 256.34L1371.89 259.06C1371.81 259.147 1371.72 259.218 1371.62 259.27C1371.51 259.321 1371.4 259.348 1371.28 259.35C1371.17 259.359 1371.05 259.342 1370.95 259.3C1370.84 259.259 1370.74 259.202 1370.65 259.13Z" fill="#2A323D"/>
<path d="M1377 252.05C1376.91 251.974 1376.84 251.883 1376.79 251.78C1376.74 251.676 1376.71 251.564 1376.7 251.45C1376.67 251.338 1376.67 251.222 1376.7 251.11C1376.74 251.002 1376.8 250.901 1376.87 250.81L1378.62 248.81L1380.62 250.56C1380.77 250.72 1380.85 250.931 1380.85 251.15C1380.85 251.366 1380.77 251.574 1380.63 251.74C1380.48 251.895 1380.28 251.996 1380.07 252.03C1379.86 252.052 1379.64 251.999 1379.46 251.88L1378.79 251.29L1378.22 251.94C1378.15 252.029 1378.05 252.101 1377.95 252.15C1377.85 252.199 1377.73 252.229 1377.62 252.24C1377.51 252.265 1377.39 252.265 1377.28 252.24C1377.17 252.199 1377.08 252.134 1377 252.05Z" fill="#2A323D"/>
<path d="M1409.31 278.48L1406.53 275.95C1406.36 275.796 1406.25 275.58 1406.24 275.35C1406.23 275.234 1406.24 275.117 1406.28 275.007C1406.32 274.897 1406.38 274.796 1406.46 274.71C1406.54 274.625 1406.63 274.555 1406.73 274.505C1406.83 274.455 1406.95 274.426 1407.06 274.42C1407.17 274.413 1407.29 274.429 1407.4 274.467C1407.51 274.505 1407.6 274.564 1407.69 274.64L1410.49 277.12C1410.63 277.284 1410.71 277.493 1410.71 277.71C1410.71 277.927 1410.63 278.136 1410.49 278.3C1410.35 278.465 1410.15 278.569 1409.93 278.59C1409.72 278.616 1409.5 278.562 1409.32 278.44L1409.31 278.48ZM1401.63 271.64L1398.83 269.15C1398.75 269.073 1398.68 268.982 1398.63 268.88C1398.58 268.777 1398.55 268.665 1398.55 268.55C1398.53 268.437 1398.53 268.323 1398.55 268.21C1398.59 268.101 1398.65 268.002 1398.73 267.92C1398.81 267.833 1398.9 267.762 1399 267.71C1399.1 267.66 1399.22 267.633 1399.33 267.63C1399.45 267.621 1399.56 267.638 1399.67 267.68C1399.78 267.717 1399.88 267.775 1399.97 267.85L1402.75 270.33C1402.84 270.406 1402.91 270.497 1402.96 270.6C1403.01 270.704 1403.04 270.816 1403.05 270.93C1403.08 271.042 1403.08 271.158 1403.05 271.27C1403.01 271.38 1402.96 271.482 1402.88 271.57C1402.72 271.735 1402.5 271.837 1402.27 271.86C1402.04 271.871 1401.81 271.792 1401.63 271.64ZM1393.95 264.81L1391.15 262.33C1390.99 262.166 1390.88 261.951 1390.86 261.72C1390.85 261.49 1390.93 261.264 1391.08 261.09C1391.16 261.001 1391.25 260.929 1391.36 260.88C1391.46 260.829 1391.58 260.799 1391.69 260.79C1391.8 260.766 1391.92 260.766 1392.03 260.79C1392.14 260.827 1392.24 260.885 1392.33 260.96L1395.12 263.44C1395.21 263.517 1395.28 263.611 1395.33 263.715C1395.38 263.82 1395.41 263.934 1395.41 264.05C1395.42 264.167 1395.4 264.283 1395.36 264.393C1395.32 264.503 1395.26 264.604 1395.18 264.69C1395.11 264.779 1395.01 264.851 1394.91 264.9C1394.81 264.951 1394.69 264.979 1394.58 264.98C1394.47 265.005 1394.35 265.005 1394.24 264.98C1394.15 264.939 1394.07 264.882 1394 264.81H1393.95ZM1386.26 257.98L1383.48 255.49C1383.39 255.414 1383.32 255.323 1383.27 255.22C1383.22 255.116 1383.19 255.004 1383.18 254.89C1383.16 254.778 1383.16 254.662 1383.18 254.55C1383.22 254.442 1383.28 254.341 1383.35 254.25C1383.51 254.086 1383.73 253.983 1383.96 253.96C1384.19 253.95 1384.42 254.029 1384.59 254.18L1387.39 256.66C1387.56 256.819 1387.66 257.038 1387.67 257.27C1387.68 257.385 1387.66 257.5 1387.63 257.608C1387.59 257.717 1387.53 257.816 1387.45 257.9C1387.38 257.991 1387.29 258.063 1387.18 258.11C1387.08 258.161 1386.96 258.191 1386.85 258.2C1386.73 258.209 1386.62 258.192 1386.51 258.15C1386.42 258.117 1386.33 258.066 1386.26 258V257.98Z" fill="#2A323D"/>
<path d="M1414.34 285.3C1414.25 285.224 1414.18 285.132 1414.13 285.029C1414.08 284.926 1414.06 284.814 1414.05 284.7C1414.04 284.585 1414.05 284.469 1414.09 284.359C1414.13 284.249 1414.18 284.147 1414.26 284.06L1414.85 283.4L1414.2 282.82C1414.1 282.751 1414.01 282.659 1413.94 282.552C1413.88 282.445 1413.83 282.325 1413.82 282.2C1413.8 282.078 1413.8 281.952 1413.82 281.83C1413.85 281.711 1413.92 281.601 1414 281.51C1414.08 281.415 1414.18 281.34 1414.3 281.29C1414.41 281.238 1414.54 281.21 1414.66 281.21C1414.78 281.212 1414.91 281.239 1415.02 281.29C1415.13 281.336 1415.24 281.408 1415.32 281.5L1417.32 283.25L1415.57 285.25C1415.5 285.339 1415.4 285.411 1415.3 285.46C1415.09 285.563 1414.85 285.58 1414.63 285.51C1414.52 285.46 1414.42 285.388 1414.34 285.3Z" fill="#2A323D"/>
<path d="M1388.08 314.83C1387.91 314.672 1387.8 314.453 1387.79 314.22C1387.78 314.106 1387.79 313.992 1387.83 313.884C1387.87 313.775 1387.92 313.676 1388 313.59L1390.43 310.86C1390.59 310.691 1390.81 310.59 1391.04 310.58C1391.15 310.57 1391.27 310.585 1391.38 310.623C1391.49 310.661 1391.59 310.721 1391.67 310.8C1391.76 310.876 1391.83 310.968 1391.88 311.071C1391.93 311.174 1391.95 311.286 1391.96 311.4C1391.97 311.633 1391.89 311.862 1391.74 312.04L1389.32 314.75C1389.24 314.837 1389.15 314.908 1389.05 314.96C1388.95 315.009 1388.83 315.039 1388.72 315.05C1388.6 315.055 1388.49 315.038 1388.38 315C1388.27 314.959 1388.17 314.902 1388.08 314.83ZM1394.74 307.35C1394.65 307.274 1394.58 307.183 1394.53 307.08C1394.48 306.976 1394.45 306.864 1394.44 306.75C1394.41 306.638 1394.41 306.522 1394.44 306.41C1394.47 306.298 1394.53 306.195 1394.61 306.11L1397.03 303.38C1397.19 303.231 1397.4 303.149 1397.62 303.15C1397.73 303.145 1397.84 303.162 1397.94 303.2C1398.05 303.238 1398.14 303.295 1398.22 303.37C1398.39 303.516 1398.49 303.72 1398.51 303.94C1398.52 304.049 1398.52 304.161 1398.49 304.267C1398.46 304.374 1398.41 304.473 1398.34 304.56L1395.93 307.27C1395.85 307.357 1395.76 307.428 1395.66 307.48C1395.55 307.53 1395.44 307.56 1395.32 307.57C1395.2 307.578 1395.09 307.561 1394.98 307.52C1394.89 307.482 1394.81 307.424 1394.74 307.35ZM1401.38 299.87C1401.21 299.715 1401.1 299.497 1401.09 299.264C1401.08 299.032 1401.16 298.804 1401.31 298.63L1403.74 295.91C1403.82 295.824 1403.91 295.754 1404.01 295.705C1404.11 295.655 1404.23 295.626 1404.34 295.62C1404.57 295.61 1404.8 295.689 1404.97 295.84C1405.06 295.916 1405.13 296.01 1405.18 296.115C1405.23 296.22 1405.26 296.334 1405.26 296.45C1405.27 296.564 1405.25 296.679 1405.21 296.787C1405.18 296.895 1405.12 296.995 1405.04 297.08L1402.67 299.81C1402.59 299.908 1402.49 299.987 1402.38 300.04C1402.27 300.099 1402.15 300.133 1402.02 300.14C1401.89 300.14 1401.77 300.117 1401.65 300.07C1401.54 300.021 1401.43 299.95 1401.35 299.86L1401.38 299.87ZM1408.04 292.39C1407.95 292.318 1407.88 292.226 1407.83 292.12C1407.78 292.016 1407.75 291.904 1407.74 291.79C1407.72 291.678 1407.72 291.563 1407.74 291.45C1407.78 291.342 1407.84 291.241 1407.91 291.15L1410.33 288.43C1410.49 288.256 1410.71 288.148 1410.94 288.13C1411.11 288.123 1411.28 288.165 1411.43 288.252C1411.58 288.339 1411.7 288.466 1411.78 288.62C1411.83 288.724 1411.86 288.836 1411.87 288.95C1411.89 289.062 1411.89 289.178 1411.87 289.29C1411.83 289.401 1411.77 289.502 1411.69 289.59L1409.27 292.32C1409.11 292.493 1408.9 292.598 1408.66 292.611C1408.43 292.624 1408.2 292.545 1408.03 292.39H1408.04Z" fill="#2A323D"/>
<path d="M1368.67 299C1367.74 298.271 1367.14 297.202 1367 296.03C1366.86 294.858 1367.19 293.678 1367.92 292.75C1368.65 291.822 1369.72 291.221 1370.89 291.081C1372.06 290.94 1373.24 291.271 1374.17 292L1385.94 278.73L1384.79 277.73C1383.93 278.422 1382.83 278.761 1381.73 278.68C1380.91 278.614 1380.13 278.322 1379.47 277.838C1378.8 277.354 1378.29 276.695 1377.98 275.936C1377.67 275.177 1377.57 274.347 1377.71 273.537C1377.84 272.727 1378.19 271.97 1378.73 271.35L1381.36 268.35C1381.43 268.279 1381.5 268.215 1381.58 268.16C1382.4 267.448 1383.44 267.056 1384.53 267.056C1385.61 267.056 1386.65 267.448 1387.47 268.16L1395.2 275.05C1395.3 275.127 1395.38 275.227 1395.43 275.34C1395.49 275.451 1395.52 275.574 1395.53 275.7C1395.53 275.823 1395.51 275.944 1395.47 276.06C1395.43 276.178 1395.36 276.287 1395.28 276.38L1372.95 301.45C1372.87 301.543 1372.77 301.617 1372.66 301.67C1372.55 301.729 1372.43 301.763 1372.3 301.77C1372.18 301.77 1372.06 301.75 1371.94 301.71C1371.82 301.673 1371.71 301.608 1371.62 301.52L1368.67 299Z" fill="#2A323D"/>
<path d="M1392.53 274L1370.2 299.07L1367.26 296.45C1366.64 295.806 1366.28 294.954 1366.26 294.06C1366.24 293.39 1366.41 292.728 1366.75 292.153C1367.1 291.577 1367.6 291.112 1368.2 290.812C1368.8 290.512 1369.47 290.391 1370.14 290.461C1370.8 290.532 1371.44 290.791 1371.96 291.21L1372.28 291.49L1385.28 276.9L1382.79 274.68L1382.65 274.85C1382.35 275.221 1381.98 275.53 1381.56 275.76C1381.14 275.983 1380.68 276.119 1380.2 276.16C1379.72 276.204 1379.24 276.146 1378.79 275.99C1378.34 275.839 1377.92 275.598 1377.56 275.28C1377.2 274.968 1376.91 274.583 1376.71 274.15C1376.51 273.712 1376.4 273.24 1376.38 272.76C1376.36 272.285 1376.44 271.811 1376.62 271.367C1376.79 270.924 1377.05 270.52 1377.38 270.18L1380 267.18C1380.63 266.545 1381.48 266.176 1382.37 266.148C1383.26 266.12 1384.13 266.436 1384.8 267.03L1392.53 273.92V274ZM1393.76 272.61L1386 265.71C1385.02 264.852 1383.77 264.379 1382.46 264.379C1381.16 264.379 1379.91 264.852 1378.93 265.71C1378.8 265.796 1378.68 265.896 1378.57 266.01L1375.95 269.01C1375.12 269.944 1374.64 271.139 1374.59 272.388C1374.54 273.638 1374.93 274.865 1375.69 275.86C1376.45 276.852 1377.54 277.546 1378.76 277.82C1379.99 278.094 1381.27 277.931 1382.38 277.36L1372 289.06C1370.84 288.482 1369.5 288.346 1368.24 288.679C1366.99 289.012 1365.89 289.791 1365.17 290.87C1364.44 291.949 1364.13 293.255 1364.3 294.545C1364.47 295.834 1365.09 297.02 1366.07 297.88L1369 300.49C1369.18 300.657 1369.4 300.787 1369.63 300.87C1369.86 300.956 1370.11 300.993 1370.36 300.98C1370.61 300.966 1370.85 300.905 1371.07 300.8C1371.3 300.694 1371.5 300.54 1371.66 300.35L1394 275.28C1394.17 275.1 1394.3 274.885 1394.38 274.65C1394.46 274.419 1394.5 274.175 1394.49 273.93C1394.47 273.682 1394.41 273.438 1394.31 273.21C1394.2 272.987 1394.05 272.787 1393.86 272.62L1393.76 272.61Z" fill="#2A323D"/>
<path d="M1402.61 285.47C1403.22 284.697 1403.51 283.723 1403.42 282.744C1403.34 281.766 1402.88 280.856 1402.15 280.2L1393.6 272.6L1368.94 300.3L1372.19 303.19C1372.57 303.53 1373.01 303.788 1373.49 303.95C1373.97 304.119 1374.48 304.19 1374.99 304.16C1375.5 304.128 1376 303.999 1376.46 303.78C1376.92 303.56 1377.33 303.25 1377.67 302.87C1378 302.489 1378.26 302.048 1378.43 301.57C1378.6 301.089 1378.67 300.579 1378.64 300.07C1378.61 299.56 1378.48 299.061 1378.26 298.6C1378.04 298.141 1377.73 297.729 1377.35 297.39L1377 297.09L1391.34 281L1394.1 283.45L1393.93 283.64C1393.58 284.016 1393.31 284.458 1393.13 284.94C1392.95 285.426 1392.87 285.943 1392.89 286.46C1392.91 286.977 1393.04 287.484 1393.27 287.95C1393.49 288.418 1393.8 288.836 1394.19 289.18C1394.57 289.527 1395.03 289.789 1395.52 289.95C1396.01 290.121 1396.53 290.189 1397.05 290.15C1397.57 290.11 1398.07 289.971 1398.53 289.74C1398.99 289.492 1399.4 289.152 1399.73 288.74L1402.63 285.48L1402.61 285.47Z" fill="#2A323D"/>
<path d="M1318.59 110.08C1318.56 110.232 1318.52 110.38 1318.45 110.52C1318.31 110.82 1318.06 111.053 1317.75 111.17C1317.59 111.236 1317.42 111.27 1317.25 111.27C1317.08 111.27 1316.91 111.236 1316.75 111.17C1314.46 110.17 1312.2 109.02 1309.96 107.83C1309.82 107.749 1309.69 107.644 1309.59 107.52C1309.48 107.395 1309.4 107.248 1309.36 107.09C1309.31 106.932 1309.29 106.765 1309.31 106.6C1309.33 106.436 1309.37 106.277 1309.45 106.13C1309.53 105.987 1309.63 105.862 1309.76 105.76C1309.89 105.654 1310.03 105.576 1310.19 105.53C1310.35 105.478 1310.52 105.461 1310.68 105.48C1310.84 105.501 1311 105.548 1311.14 105.62C1313.31 106.79 1315.54 107.89 1317.77 108.9C1318.01 108.997 1318.2 109.164 1318.34 109.38C1318.49 109.583 1318.58 109.827 1318.59 110.08ZM1301.28 100.22C1301.28 100.452 1301.21 100.678 1301.08 100.87C1300.98 101.006 1300.86 101.121 1300.72 101.21C1300.58 101.3 1300.43 101.358 1300.27 101.38C1300.11 101.415 1299.94 101.415 1299.78 101.38C1299.62 101.343 1299.47 101.275 1299.33 101.18C1297.33 99.75 1295.27 98.18 1293.33 96.65C1293.2 96.5473 1293.1 96.4201 1293.02 96.2758C1292.94 96.1314 1292.89 95.973 1292.88 95.81C1292.85 95.4798 1292.94 95.1496 1293.15 94.89C1293.37 94.6384 1293.67 94.4778 1294 94.44C1294.33 94.4118 1294.65 94.5122 1294.91 94.72C1296.82 96.28 1298.8 97.78 1300.79 99.2C1300.96 99.3155 1301.09 99.4701 1301.18 99.65C1301.26 99.8274 1301.3 100.024 1301.28 100.22ZM1286.15 87.28C1286.13 87.5904 1285.99 87.882 1285.77 88.1C1285.53 88.311 1285.23 88.4252 1284.91 88.42C1284.59 88.4186 1284.28 88.2891 1284.05 88.06C1282.33 86.21 1280.61 84.36 1278.98 82.44C1278.88 82.3152 1278.8 82.1729 1278.75 82.02C1278.7 81.8618 1278.68 81.6956 1278.69 81.53C1278.71 81.369 1278.75 81.2126 1278.83 81.07C1278.9 80.9232 1279 80.7935 1279.13 80.69C1279.26 80.5816 1279.4 80.4999 1279.56 80.45C1279.72 80.4156 1279.88 80.4156 1280.04 80.45C1280.2 80.4613 1280.36 80.5055 1280.51 80.58C1280.66 80.6575 1280.78 80.7628 1280.89 80.89C1282.48 82.78 1284.14 84.62 1285.89 86.38C1286.11 86.6464 1286.22 86.9866 1286.19 87.33L1286.15 87.28ZM1273.71 71.71C1273.7 71.91 1273.65 72.105 1273.55 72.2789C1273.45 72.4528 1273.31 72.6006 1273.14 72.71C1272.86 72.8853 1272.53 72.9457 1272.21 72.8785C1271.89 72.8112 1271.61 72.6215 1271.43 72.35C1270.04 70.25 1268.72 68.07 1267.5 65.88C1267.42 65.7345 1267.37 65.5749 1267.35 65.41C1267.32 65.2519 1267.32 65.0881 1267.35 64.93C1267.39 64.7699 1267.47 64.6202 1267.57 64.49C1267.67 64.3659 1267.8 64.261 1267.94 64.18C1268.08 64.1005 1268.24 64.0496 1268.4 64.03C1268.56 63.9948 1268.73 63.9948 1268.89 64.03C1269.05 64.0726 1269.19 64.1476 1269.32 64.25C1269.45 64.3487 1269.56 64.475 1269.64 64.62C1270.83 66.75 1272.12 68.88 1273.47 70.93C1273.63 71.1601 1273.71 71.4319 1273.71 71.71Z" fill="#2A323D"/>
<path d="M1261.06 55.27C1261.09 54.7082 1261.29 54.1685 1261.63 53.72C1261.97 53.2736 1262.44 52.94 1262.98 52.7619C1263.51 52.5837 1264.09 52.5691 1264.63 52.72C1265.04 52.8221 1265.42 53.0151 1265.75 53.2848C1266.07 53.5545 1266.33 53.8939 1266.51 54.278C1266.69 54.6621 1266.78 55.081 1266.77 55.5037C1266.76 55.9264 1266.66 56.342 1266.47 56.72C1266.23 57.2225 1265.84 57.6429 1265.36 57.93C1264.88 58.2145 1264.32 58.347 1263.76 58.31C1263.39 58.2903 1263.03 58.1986 1262.69 58.04C1262.36 57.8731 1262.06 57.6459 1261.81 57.37C1261.56 57.0939 1261.37 56.7709 1261.25 56.42C1261.11 56.0536 1261.04 55.6623 1261.06 55.27Z" fill="#2A323D"/>
<path d="M1322.68 113.14C1322.71 112.582 1322.9 112.045 1323.24 111.6C1323.57 111.144 1324.03 110.796 1324.56 110.6C1325.09 110.417 1325.66 110.393 1326.21 110.53C1326.75 110.671 1327.24 110.97 1327.61 111.39C1327.99 111.804 1328.23 112.324 1328.31 112.88C1328.38 113.434 1328.29 113.998 1328.05 114.501C1327.81 115.004 1327.42 115.425 1326.94 115.71C1326.38 116.045 1325.72 116.173 1325.07 116.072C1324.42 115.972 1323.83 115.649 1323.4 115.16C1322.9 114.607 1322.65 113.882 1322.68 113.14Z" fill="#2A323D"/>
<path d="M1434.92 416.11C1434.54 416.519 1434.06 416.81 1433.52 416.95C1432.98 417.087 1432.41 417.063 1431.89 416.88C1431.36 416.688 1430.9 416.339 1430.57 415.88C1430.24 415.435 1430.04 414.902 1430.01 414.347C1429.98 413.792 1430.11 413.24 1430.39 412.76C1430.68 412.283 1431.09 411.898 1431.59 411.65C1432.09 411.41 1432.65 411.323 1433.2 411.399C1433.76 411.476 1434.27 411.713 1434.69 412.08C1434.97 412.325 1435.2 412.624 1435.36 412.959C1435.52 413.294 1435.61 413.658 1435.63 414.03C1435.65 414.403 1435.6 414.777 1435.48 415.13C1435.36 415.49 1435.17 415.823 1434.92 416.11Z" fill="#2A323D"/>
<path d="M1434.42 404.53C1434.27 404.39 1434.15 404.215 1434.08 404.02C1434.01 403.821 1433.99 403.609 1434.02 403.4C1434.42 400.99 1434.73 398.52 1434.95 396.07C1434.96 395.904 1435.01 395.742 1435.09 395.594C1435.16 395.446 1435.27 395.316 1435.4 395.21C1435.59 395.049 1435.83 394.95 1436.08 394.924C1436.33 394.898 1436.59 394.947 1436.81 395.064C1437.03 395.182 1437.22 395.363 1437.34 395.585C1437.46 395.806 1437.51 396.059 1437.49 396.31C1437.24 398.85 1436.93 401.37 1436.49 403.85C1436.44 404.178 1436.26 404.473 1435.99 404.67C1435.86 404.763 1435.71 404.83 1435.55 404.87C1435.39 404.905 1435.22 404.905 1435.06 404.87C1434.82 404.82 1434.6 404.702 1434.42 404.53ZM1435.75 384.66C1435.63 384.547 1435.52 384.411 1435.45 384.26C1435.38 384.106 1435.34 383.939 1435.34 383.77C1435.27 381.31 1435.11 378.83 1434.88 376.39C1434.84 376.222 1434.84 376.048 1434.88 375.88C1434.92 375.711 1434.99 375.554 1435.1 375.42C1435.2 375.279 1435.33 375.163 1435.48 375.08C1435.63 374.993 1435.8 374.938 1435.97 374.92C1436.15 374.898 1436.33 374.915 1436.5 374.968C1436.68 375.022 1436.83 375.111 1436.97 375.23C1437.1 375.348 1437.2 375.487 1437.28 375.64C1437.35 375.797 1437.39 375.968 1437.39 376.14C1437.64 378.64 1437.79 381.19 1437.87 383.7C1437.88 383.943 1437.82 384.183 1437.69 384.39C1437.59 384.546 1437.46 384.678 1437.31 384.778C1437.16 384.878 1436.98 384.944 1436.8 384.969C1436.62 384.995 1436.44 384.981 1436.26 384.927C1436.09 384.874 1435.93 384.783 1435.79 384.66H1435.75ZM1433.34 364.89C1433.14 364.718 1433.01 364.486 1432.95 364.23C1432.4 361.84 1431.85 359.44 1431.1 357.11C1431.01 356.793 1431.04 356.452 1431.2 356.162C1431.36 355.871 1431.62 355.655 1431.94 355.56C1432.1 355.504 1432.28 355.484 1432.45 355.501C1432.62 355.519 1432.79 355.573 1432.94 355.66C1433.08 355.737 1433.21 355.842 1433.31 355.97C1433.42 356.097 1433.49 356.243 1433.54 356.4C1434.26 358.81 1434.89 361.29 1435.42 363.73C1435.45 363.891 1435.45 364.059 1435.42 364.22C1435.39 364.381 1435.33 364.534 1435.24 364.67C1435.15 364.811 1435.04 364.933 1434.9 365.03C1434.77 365.125 1434.61 365.19 1434.45 365.22C1434.26 365.265 1434.07 365.265 1433.88 365.22C1433.67 365.165 1433.48 365.051 1433.34 364.89ZM1427.24 345.96C1427.11 345.835 1427 345.686 1426.92 345.52C1425.92 343.26 1424.92 341.02 1423.8 338.86C1423.73 338.713 1423.68 338.553 1423.67 338.39C1423.66 338.224 1423.68 338.058 1423.73 337.9C1423.78 337.747 1423.86 337.605 1423.96 337.48C1424.06 337.355 1424.19 337.253 1424.34 337.18C1424.49 337.105 1424.65 337.057 1424.81 337.04C1424.98 337.03 1425.14 337.051 1425.3 337.1C1425.45 337.15 1425.6 337.228 1425.72 337.33C1425.84 337.435 1425.95 337.564 1426.02 337.71C1427.18 339.94 1428.26 342.24 1429.24 344.55C1429.31 344.707 1429.35 344.878 1429.35 345.05C1429.35 345.222 1429.31 345.393 1429.24 345.55C1429.18 345.703 1429.09 345.842 1428.97 345.959C1428.86 346.076 1428.72 346.168 1428.57 346.23C1428.35 346.32 1428.12 346.341 1427.89 346.29C1427.66 346.251 1427.44 346.143 1427.27 345.98L1427.24 345.96Z" fill="#2A323D"/>
<path d="M1422.66 332.47C1422.29 332.886 1421.8 333.181 1421.26 333.32C1420.72 333.461 1420.15 333.44 1419.62 333.26C1419.09 333.069 1418.62 332.72 1418.29 332.26C1417.96 331.813 1417.76 331.277 1417.73 330.72C1417.7 330.163 1417.83 329.609 1418.11 329.127C1418.39 328.645 1418.81 328.257 1419.31 328.01C1419.82 327.773 1420.38 327.683 1420.94 327.75C1421.49 327.831 1422.01 328.071 1422.43 328.44C1422.71 328.686 1422.94 328.985 1423.1 329.32C1423.26 329.656 1423.35 330.019 1423.38 330.39C1423.4 330.76 1423.35 331.132 1423.22 331.48C1423.1 331.845 1422.91 332.181 1422.66 332.47Z" fill="#2A323D"/>
<path d="M1220.86 13.24L1218.28 12.42L1218.12 12.34C1218.07 12.3007 1218.03 12.2533 1218 12.2C1217.99 12.1403 1217.99 12.0797 1218 12.02C1217.99 11.9609 1217.99 11.8991 1218 11.84C1218.02 11.7807 1218.05 11.726 1218.09 11.68C1218.13 11.6321 1218.18 11.5915 1218.23 11.56C1218.29 11.5467 1218.35 11.5467 1218.41 11.56C1218.47 11.5452 1218.53 11.5452 1218.59 11.56L1221.17 12.38C1221.23 12.3975 1221.28 12.427 1221.33 12.4666C1221.38 12.5062 1221.41 12.555 1221.44 12.61C1221.46 12.6668 1221.48 12.7281 1221.48 12.79C1221.48 12.852 1221.46 12.9132 1221.44 12.97C1221.4 13.0846 1221.32 13.1804 1221.21 13.24C1221.1 13.2796 1220.97 13.2796 1220.86 13.24Z" fill="#2A323D"/>
<path d="M1243.44 20.39L1240.86 19.57C1240.8 19.5576 1240.75 19.5301 1240.7 19.49C1240.65 19.4507 1240.61 19.4033 1240.58 19.35C1240.57 19.2903 1240.57 19.2297 1240.58 19.17C1240.57 19.1109 1240.57 19.0491 1240.58 18.99C1240.6 18.9317 1240.63 18.8774 1240.67 18.83C1240.71 18.7821 1240.76 18.7415 1240.81 18.71H1240.99C1241.05 18.6995 1241.11 18.6995 1241.17 18.71L1243.75 19.53C1243.87 19.5681 1243.97 19.6504 1244.03 19.76C1244.05 19.8168 1244.07 19.8781 1244.07 19.94C1244.07 20.0019 1244.05 20.0632 1244.03 20.12C1244.01 20.1793 1243.98 20.234 1243.94 20.28C1243.9 20.3279 1243.85 20.3685 1243.8 20.4C1243.74 20.4089 1243.68 20.4089 1243.62 20.4C1243.56 20.4062 1243.5 20.4029 1243.44 20.39Z" fill="#2A323D"/>
<path d="M1235 4.58C1234.88 4.54193 1234.78 4.45963 1234.72 4.35C1234.7 4.29323 1234.68 4.23195 1234.68 4.17C1234.68 4.10805 1234.7 4.04678 1234.72 3.99L1235.58 1.26C1235.59 1.19197 1235.62 1.12736 1235.66 1.07C1235.7 1.01392 1235.74 0.9662 1235.8 0.930003C1235.86 0.896416 1235.92 0.872767 1235.99 0.860003C1236.06 0.845138 1236.13 0.845138 1236.2 0.860003C1236.26 0.883562 1236.32 0.917366 1236.37 0.960002C1236.42 1.00997 1236.46 1.06734 1236.49 1.13C1236.5 1.19582 1236.5 1.26418 1236.49 1.33C1236.5 1.39627 1236.5 1.46373 1236.49 1.53L1235.62 4.25C1235.6 4.30786 1235.58 4.36178 1235.54 4.40827C1235.5 4.45477 1235.45 4.49283 1235.4 4.52C1235.34 4.56052 1235.28 4.58706 1235.21 4.59748C1235.14 4.60789 1235.07 4.60191 1235 4.58Z" fill="#2A323D"/>
<path d="M1225.72 6.88999C1225.6 6.86987 1225.5 6.80977 1225.42 6.71999L1224.13 4.10999C1224.1 4.05874 1224.08 4.00008 1224.08 3.93999C1224.06 3.88096 1224.06 3.81902 1224.08 3.75999C1224.1 3.70067 1224.13 3.64603 1224.17 3.59999C1224.21 3.55211 1224.26 3.5115 1224.31 3.47999C1224.42 3.43493 1224.55 3.43493 1224.66 3.47999C1224.78 3.51809 1224.88 3.59599 1224.94 3.69999L1226.26 6.24999C1226.3 6.30776 1226.32 6.37248 1226.33 6.43999C1226.34 6.5092 1226.34 6.58078 1226.33 6.64999C1226.31 6.71187 1226.27 6.76933 1226.23 6.81999C1226.18 6.86852 1226.13 6.90907 1226.07 6.93999C1225.95 6.96388 1225.83 6.94622 1225.72 6.88999Z" fill="#2A323D"/>
<path d="M1241.34 11.84C1241.23 11.8201 1241.12 11.7598 1241.05 11.67C1241.03 11.611 1241.03 11.549 1241.05 11.49C1241.04 11.4309 1241.04 11.3691 1241.05 11.31C1241.07 11.2517 1241.1 11.1975 1241.14 11.15L1241.28 11.04L1243.82 9.71C1243.93 9.66494 1244.06 9.66494 1244.17 9.71C1244.29 9.7481 1244.39 9.826 1244.45 9.93C1244.46 9.98926 1244.46 10.0507 1244.45 10.11C1244.46 10.1691 1244.46 10.2309 1244.45 10.29C1244.43 10.3483 1244.4 10.4026 1244.36 10.45C1244.32 10.4972 1244.27 10.5349 1244.22 10.56L1241.68 11.89C1241.56 11.914 1241.44 11.8963 1241.34 11.84Z" fill="#2A323D"/>
<path d="M1233.25 8.55999C1232.07 8.27531 1230.83 8.25162 1229.64 8.49056C1228.45 8.7295 1227.32 9.22535 1226.34 9.94371C1225.35 10.6621 1224.54 11.5857 1223.95 12.6505C1223.36 13.7153 1223.01 14.8958 1222.92 16.11C1222.79 17.7308 1223.14 19.3537 1223.92 20.78C1224.85 22.3692 1225.2 24.2306 1224.92 26.05L1231.17 28.05C1231.99 26.3912 1233.33 25.0486 1234.99 24.23C1236.52 23.4631 1237.79 22.2453 1238.61 20.74C1239.22 19.6141 1239.57 18.3624 1239.63 17.081C1239.68 15.7996 1239.44 14.5227 1238.93 13.3484C1238.41 12.1741 1237.63 11.1337 1236.65 10.307C1235.67 9.4804 1234.51 8.88959 1233.27 8.58L1233.25 8.55999ZM1233.92 19.62L1233.63 18.22L1232.2 19.33C1232.14 19.3798 1232.07 19.411 1231.99 19.42C1231.91 19.4343 1231.84 19.4343 1231.76 19.42C1231.69 19.3896 1231.62 19.3454 1231.57 19.29C1231.52 19.2316 1231.48 19.1635 1231.46 19.09L1231.02 17.4L1229.55 18.51C1229.49 18.558 1229.42 18.5892 1229.35 18.6C1229.28 18.62 1229.2 18.62 1229.13 18.6C1229.06 18.582 1228.99 18.5398 1228.94 18.48C1228.89 18.4267 1228.85 18.3614 1228.83 18.29L1228.34 16.63L1227.34 17.63C1227.24 17.5637 1227.16 17.4744 1227.11 17.37C1227.05 17.2657 1227.02 17.1494 1227.01 17.03C1226.99 16.918 1226.99 16.802 1227.01 16.69C1227.05 16.5783 1227.12 16.4786 1227.21 16.4L1228.21 15.4C1228.26 15.3434 1228.32 15.3014 1228.4 15.2785C1228.47 15.2556 1228.55 15.2527 1228.62 15.27C1228.7 15.2884 1228.76 15.3264 1228.82 15.38C1228.88 15.4341 1228.92 15.5031 1228.95 15.58L1229.45 17.32L1230.93 16.21C1230.99 16.1616 1231.06 16.1305 1231.14 16.12C1231.22 16.1046 1231.29 16.1046 1231.37 16.12C1231.45 16.1398 1231.52 16.1815 1231.57 16.24C1231.62 16.2971 1231.66 16.3656 1231.68 16.44L1232.12 18.14L1233.58 17.03C1233.64 16.9771 1233.71 16.9424 1233.79 16.93C1233.87 16.9101 1233.94 16.9101 1234.02 16.93C1234.1 16.9514 1234.17 16.9968 1234.22 17.06C1234.27 17.1189 1234.31 17.1918 1234.32 17.27L1234.6 18.67C1234.62 18.7786 1234.62 18.8914 1234.6 19C1234.57 19.1098 1234.52 19.2122 1234.45 19.3C1234.39 19.3932 1234.3 19.4689 1234.2 19.52C1234.11 19.5722 1234.02 19.6062 1233.92 19.62Z" fill="#2A323D"/>
<path d="M1230.87 28.92L1224.4 26.92C1224.2 27.0677 1224.05 27.2737 1223.97 27.51L1223.04 30.44C1223.02 30.552 1223.02 30.668 1223.04 30.78C1223.05 30.8992 1223.08 31.0152 1223.14 31.12C1223.19 31.2226 1223.26 31.3143 1223.35 31.39C1223.44 31.4625 1223.54 31.5169 1223.65 31.55L1224.38 31.78C1224.35 32.2597 1224.49 32.7345 1224.76 33.13C1225.03 33.5202 1225.43 33.8087 1225.88 33.95C1226.34 34.0959 1226.83 34.0856 1227.28 33.9208C1227.73 33.756 1228.11 33.446 1228.36 33.04L1229.1 33.28C1229.21 33.315 1229.33 33.3277 1229.44 33.3174C1229.56 33.3071 1229.67 33.274 1229.77 33.22C1229.98 33.111 1230.14 32.9243 1230.21 32.7L1231.14 29.77C1231.19 29.6302 1231.19 29.4798 1231.14 29.34C1231.09 29.1766 1231 29.0306 1230.87 28.92ZM1229.31 31.22L1224.43 29.67C1224.31 29.6319 1224.21 29.5496 1224.15 29.44C1224.13 29.3814 1224.11 29.3185 1224.11 29.255C1224.11 29.1915 1224.13 29.1286 1224.15 29.07C1224.17 29.0115 1224.2 28.9573 1224.24 28.9108C1224.28 28.8643 1224.32 28.8266 1224.38 28.8C1224.44 28.7755 1224.5 28.7629 1224.56 28.7629C1224.63 28.7629 1224.69 28.7755 1224.75 28.8L1229.68 30.36C1229.8 30.3981 1229.9 30.4804 1229.96 30.59C1230 30.7067 1230 30.8333 1229.96 30.95C1229.92 31.07 1229.83 31.1699 1229.72 31.23C1229.66 31.2548 1229.6 31.2676 1229.54 31.2676C1229.48 31.2676 1229.42 31.2548 1229.36 31.23L1229.31 31.22Z" fill="#2A323D"/>
<path d="M1414.72 481.24C1414.77 481.333 1414.8 481.435 1414.81 481.54C1414.83 481.639 1414.83 481.741 1414.81 481.84C1414.78 481.94 1414.73 482.032 1414.66 482.11C1414.59 482.187 1414.51 482.251 1414.42 482.3C1414.24 482.391 1414.03 482.409 1413.84 482.35C1413.74 482.32 1413.65 482.272 1413.57 482.21C1413.49 482.142 1413.42 482.061 1413.37 481.97L1411.14 477.59V477.51V477.43V477.36V477.3V477.22V477.15V477V476.91L1411.23 476.83C1411.26 476.801 1411.29 476.78 1411.33 476.77L1415.68 474.48C1415.86 474.393 1416.07 474.378 1416.27 474.439C1416.46 474.5 1416.63 474.633 1416.73 474.81C1416.78 474.899 1416.81 474.998 1416.82 475.1C1416.84 475.202 1416.84 475.308 1416.82 475.41C1416.79 475.508 1416.74 475.599 1416.67 475.677C1416.61 475.754 1416.52 475.817 1416.43 475.86L1412.78 477.78L1414.72 481.24Z" fill="#2A323D"/>
<path d="M1422.9 484.55C1422.84 484.698 1422.73 484.822 1422.59 484.9C1422.45 484.978 1422.29 485.003 1422.13 484.97C1421.97 484.937 1421.84 484.848 1421.74 484.72C1421.64 484.595 1421.59 484.44 1421.59 484.28C1421.02 484.46 1420.42 484.46 1419.85 484.28C1419.12 483.999 1418.53 483.447 1418.19 482.74C1417.85 482.037 1417.8 481.232 1418.03 480.489C1418.27 479.746 1418.78 479.121 1419.46 478.74C1420.14 478.351 1420.95 478.24 1421.71 478.43C1422.27 478.612 1422.76 478.961 1423.11 479.43L1423.8 477.23C1423.86 477.058 1423.98 476.915 1424.14 476.83C1424.26 476.773 1424.39 476.751 1424.52 476.767C1424.65 476.784 1424.77 476.837 1424.87 476.922C1424.98 477.006 1425.05 477.118 1425.09 477.244C1425.13 477.37 1425.13 477.504 1425.09 477.63L1422.9 484.55ZM1421.3 479.72C1421.09 479.651 1420.88 479.627 1420.66 479.65C1420.45 479.672 1420.24 479.737 1420.05 479.84C1419.65 480.049 1419.35 480.409 1419.21 480.84C1419.13 481.058 1419.1 481.289 1419.11 481.52C1419.13 481.749 1419.19 481.973 1419.29 482.18C1419.39 482.374 1419.52 482.547 1419.68 482.69C1419.85 482.831 1420.04 482.937 1420.25 483C1420.45 483.068 1420.67 483.092 1420.88 483.07C1421.09 483.048 1421.3 482.983 1421.49 482.88C1421.69 482.768 1421.87 482.618 1422.02 482.44C1422.16 482.26 1422.27 482.052 1422.33 481.83C1422.4 481.614 1422.44 481.384 1422.42 481.156C1422.4 480.927 1422.34 480.704 1422.24 480.5C1422.15 480.304 1422.02 480.13 1421.86 479.99C1421.69 479.861 1421.5 479.769 1421.3 479.72Z" fill="#2A323D"/>
<path d="M1428.71 479C1428.69 479.097 1428.66 479.19 1428.6 479.27C1428.55 479.351 1428.48 479.416 1428.39 479.46C1428.31 479.508 1428.22 479.542 1428.13 479.56C1428.03 479.58 1427.94 479.58 1427.84 479.56C1427.75 479.527 1427.67 479.48 1427.59 479.42C1427.52 479.352 1427.47 479.275 1427.43 479.19C1427.39 479.102 1427.37 479.006 1427.37 478.91C1427.37 478.813 1427.4 478.717 1427.44 478.63L1427.51 478.39C1427.58 478.243 1427.7 478.126 1427.85 478.06C1428 477.999 1428.17 477.993 1428.32 478.042C1428.48 478.091 1428.61 478.193 1428.7 478.33C1428.78 478.469 1428.81 478.632 1428.78 478.79L1428.71 479ZM1428.03 481.13L1426.59 485.68C1426.58 485.777 1426.54 485.869 1426.49 485.95C1426.43 486.026 1426.36 486.09 1426.28 486.14C1426.2 486.188 1426.1 486.222 1426.01 486.24C1425.92 486.26 1425.82 486.26 1425.73 486.24C1425.64 486.212 1425.55 486.164 1425.48 486.1C1425.41 486.033 1425.35 485.955 1425.31 485.87C1425.29 485.778 1425.29 485.682 1425.31 485.59C1425.31 485.493 1425.33 485.398 1425.37 485.31L1426.81 480.76C1426.83 480.664 1426.87 480.573 1426.92 480.49C1426.97 480.409 1427.04 480.344 1427.13 480.3C1427.21 480.246 1427.3 480.212 1427.4 480.2C1427.49 480.18 1427.59 480.18 1427.68 480.2C1427.77 480.231 1427.86 480.278 1427.93 480.34C1428 480.406 1428.05 480.484 1428.09 480.57C1428.13 480.658 1428.15 480.754 1428.15 480.85C1428.14 480.97 1428.08 481.083 1428 481.17L1428.03 481.13Z" fill="#2A323D"/>
<path d="M1434.56 483.6L1431.2 487.53V487.62L1431.1 487.68L1431.01 487.73H1430.91L1430.64 487.65H1430.55L1430.46 487.55V487.46V487.36V487.28L1430 482.13C1429.98 482.048 1429.98 481.962 1430 481.88C1430.02 481.798 1430.06 481.723 1430.12 481.66C1430.18 481.599 1430.25 481.548 1430.32 481.51C1430.4 481.47 1430.48 481.45 1430.57 481.45C1430.74 481.438 1430.9 481.492 1431.03 481.6C1431.15 481.716 1431.23 481.872 1431.24 482.04L1431.58 485.65L1433.94 482.9C1433.99 482.828 1434.05 482.77 1434.13 482.73C1434.2 482.687 1434.29 482.66 1434.37 482.65C1434.45 482.631 1434.54 482.631 1434.62 482.65C1434.7 482.67 1434.77 482.712 1434.83 482.77C1434.92 482.899 1434.95 483.056 1434.93 483.21C1434.9 483.298 1434.85 483.378 1434.79 483.445C1434.72 483.512 1434.65 483.565 1434.56 483.6Z" fill="#2A323D"/>
<path d="M1441 487L1440.89 487.06L1436.55 489.36C1436.46 489.438 1436.36 489.493 1436.24 489.52C1436.13 489.55 1436 489.55 1435.89 489.52C1435.77 489.502 1435.66 489.45 1435.57 489.37C1435.47 489.3 1435.39 489.207 1435.34 489.1C1435.29 488.994 1435.26 488.878 1435.26 488.76C1435.26 488.639 1435.29 488.52 1435.34 488.41C1435.39 488.303 1435.47 488.21 1435.56 488.14C1435.65 488.063 1435.75 488.011 1435.87 487.99L1439.53 486.07L1437.64 482.42C1437.56 482.242 1437.55 482.041 1437.61 481.857C1437.68 481.673 1437.8 481.517 1437.97 481.42C1438.16 481.345 1438.38 481.345 1438.57 481.42C1438.76 481.48 1438.93 481.613 1439.03 481.79L1441.25 486.17L1441.31 486.28V486.39C1441.31 486.427 1441.31 486.463 1441.31 486.5V486.64V486.7V486.82V486.93L1441 487Z" fill="#2A323D"/>
<path d="M1382.91 169.44C1382.97 169.548 1383.01 169.667 1383.02 169.79C1383.05 169.912 1383.05 170.038 1383.02 170.16C1382.98 170.277 1382.92 170.385 1382.84 170.48C1382.76 170.573 1382.66 170.647 1382.55 170.7C1382.34 170.809 1382.09 170.831 1381.86 170.76C1381.62 170.684 1381.41 170.52 1381.29 170.3L1378.69 165.11C1378.69 165.094 1378.69 165.076 1378.69 165.06C1378.69 165.043 1378.69 165.027 1378.69 165.01C1378.68 164.974 1378.68 164.936 1378.69 164.9V164.82V164.74V164.65V164.57V164.49V164.4V164.29V164.17C1378.67 164.122 1378.67 164.068 1378.69 164.02C1378.72 163.971 1378.77 163.935 1378.82 163.92L1384 161.18C1384.22 161.082 1384.47 161.068 1384.71 161.142C1384.94 161.216 1385.13 161.371 1385.26 161.58C1385.32 161.688 1385.35 161.808 1385.36 161.93C1385.39 162.052 1385.39 162.178 1385.36 162.3C1385.33 162.417 1385.27 162.526 1385.19 162.62C1385.11 162.713 1385.01 162.787 1384.9 162.84L1380.53 165.13L1382.91 169.44Z" fill="#2A323D"/>
<path d="M1387.91 171.84C1387.85 172.028 1387.73 172.189 1387.56 172.29C1387.39 172.401 1387.19 172.44 1386.99 172.4C1386.8 172.367 1386.62 172.263 1386.5 172.11C1386.37 171.956 1386.31 171.76 1386.32 171.56C1386.33 171.489 1386.35 171.421 1386.39 171.36L1388.99 163.15C1389.07 162.971 1389.22 162.828 1389.4 162.75C1389.59 162.675 1389.79 162.675 1389.98 162.75C1390.17 162.81 1390.34 162.938 1390.44 163.11C1390.54 163.285 1390.58 163.491 1390.54 163.69L1389.79 166.07C1390.34 165.955 1390.9 165.985 1391.43 166.157C1391.96 166.329 1392.44 166.636 1392.81 167.049C1393.18 167.461 1393.44 167.965 1393.56 168.509C1393.68 169.053 1393.66 169.619 1393.49 170.15L1392.49 173.33C1392.47 173.442 1392.43 173.549 1392.36 173.64C1392.3 173.739 1392.21 173.819 1392.11 173.87C1392.01 173.933 1391.9 173.971 1391.79 173.98C1391.62 174 1391.45 173.965 1391.3 173.88C1391.15 173.796 1391.03 173.666 1390.96 173.51C1390.91 173.403 1390.89 173.287 1390.89 173.17C1390.89 173.056 1390.91 172.944 1390.96 172.84L1391.96 169.68C1392.05 169.479 1392.09 169.26 1392.08 169.04C1392.08 168.819 1392.03 168.601 1391.94 168.4C1391.85 168.203 1391.71 168.026 1391.55 167.88C1391.38 167.739 1391.19 167.631 1390.98 167.56C1390.77 167.49 1390.55 167.47 1390.33 167.5C1390.11 167.521 1389.9 167.589 1389.71 167.7C1389.52 167.81 1389.36 167.957 1389.23 168.13C1389.1 168.307 1389 168.512 1388.96 168.73L1387.91 171.84Z" fill="#2A323D"/>
<path d="M1395.3 171.18C1395.58 170.263 1396.21 169.494 1397.06 169.042C1397.9 168.591 1398.89 168.493 1399.81 168.77C1400.69 169.041 1401.42 169.643 1401.86 170.449C1402.29 171.254 1402.4 172.198 1402.15 173.08V173.15C1402.15 173.19 1402.15 173.23 1402.15 173.27C1402.07 173.427 1401.93 173.549 1401.76 173.61C1401.6 173.671 1401.41 173.667 1401.25 173.6L1396.8 172.19C1396.76 172.56 1396.82 172.934 1396.98 173.27C1397.23 173.745 1397.63 174.117 1398.13 174.32C1398.62 174.531 1399.17 174.569 1399.69 174.43C1399.88 174.355 1400.08 174.355 1400.27 174.43C1400.47 174.486 1400.63 174.615 1400.74 174.79C1400.81 174.954 1400.81 175.136 1400.74 175.3C1400.69 175.468 1400.57 175.609 1400.41 175.69C1399.53 176.09 1398.53 176.14 1397.62 175.83C1397.16 175.679 1396.74 175.438 1396.38 175.12C1396.02 174.809 1395.72 174.428 1395.51 174C1395.3 173.569 1395.17 173.1 1395.14 172.62C1395.09 172.134 1395.14 171.643 1395.3 171.18ZM1397.04 170.98L1401.04 172.23C1401.02 171.757 1400.85 171.301 1400.57 170.92C1400.28 170.542 1399.89 170.257 1399.44 170.1C1399.02 169.953 1398.55 169.953 1398.13 170.1C1397.72 170.255 1397.36 170.543 1397.13 170.92L1397.04 170.98Z" fill="#2A323D"/>
<path d="M1410.2 175.92L1409.33 178.66C1409.3 178.757 1409.25 178.847 1409.18 178.925C1409.11 179.002 1409.03 179.065 1408.94 179.11C1408.85 179.159 1408.76 179.19 1408.66 179.198C1408.56 179.207 1408.45 179.194 1408.36 179.16C1408.19 179.108 1408.04 178.994 1407.94 178.84C1407.84 178.69 1407.8 178.509 1407.82 178.33C1407.15 178.55 1406.43 178.55 1405.76 178.33C1405.32 178.187 1404.91 177.959 1404.55 177.66C1404.2 177.353 1403.91 176.979 1403.71 176.56C1403.31 175.693 1403.25 174.708 1403.54 173.799C1403.83 172.889 1404.45 172.12 1405.27 171.64C1405.68 171.409 1406.13 171.263 1406.59 171.21C1407.06 171.156 1407.53 171.204 1407.98 171.35C1408.65 171.566 1409.23 171.985 1409.65 172.55C1409.74 172.38 1409.89 172.251 1410.07 172.19C1410.25 172.12 1410.45 172.12 1410.63 172.19C1410.81 172.268 1410.95 172.406 1411.03 172.58C1411.1 172.76 1411.1 172.96 1411.03 173.14L1410.2 175.92ZM1408.72 175.45C1408.9 174.922 1408.87 174.344 1408.63 173.84C1408.52 173.602 1408.37 173.39 1408.17 173.22C1407.98 173.051 1407.75 172.925 1407.5 172.85C1407.26 172.769 1407 172.742 1406.75 172.77C1406.5 172.798 1406.25 172.88 1406.03 173.01C1405.56 173.301 1405.21 173.752 1405.04 174.281C1404.87 174.809 1404.9 175.381 1405.12 175.89C1405.23 176.121 1405.39 176.325 1405.58 176.49C1405.78 176.651 1406 176.773 1406.24 176.85C1406.48 176.927 1406.74 176.954 1406.99 176.93C1407.25 176.906 1407.5 176.831 1407.72 176.71C1408.2 176.431 1408.56 175.981 1408.72 175.45Z" fill="#2A323D"/>
<path d="M1418.4 181.51C1418.34 181.691 1418.21 181.842 1418.04 181.93C1417.87 182.029 1417.68 182.061 1417.49 182.02C1417.3 181.984 1417.13 181.877 1417.02 181.72C1416.9 181.57 1416.84 181.382 1416.85 181.19C1416.17 181.405 1415.44 181.405 1414.76 181.19C1414.3 181.046 1413.87 180.813 1413.51 180.504C1413.14 180.195 1412.83 179.817 1412.61 179.39C1412.17 178.524 1412.08 177.519 1412.37 176.59C1412.67 175.666 1413.32 174.898 1414.18 174.45C1414.61 174.227 1415.07 174.091 1415.55 174.049C1416.03 174.008 1416.51 174.063 1416.97 174.21C1417.64 174.423 1418.23 174.83 1418.67 175.38L1419.48 172.82C1419.55 172.619 1419.69 172.451 1419.87 172.35C1419.96 172.3 1420.06 172.27 1420.17 172.262C1420.27 172.253 1420.38 172.266 1420.48 172.3C1420.58 172.331 1420.67 172.381 1420.75 172.448C1420.84 172.515 1420.9 172.597 1420.95 172.69C1420.99 172.786 1421.01 172.89 1421.01 172.995C1421.01 173.1 1420.99 173.204 1420.95 173.3L1419.2 178.84L1418.4 181.51ZM1416.51 175.68C1416.26 175.602 1416.01 175.578 1415.75 175.61C1415.49 175.63 1415.24 175.709 1415.02 175.84C1414.54 176.1 1414.18 176.538 1414.02 177.06C1413.85 177.581 1413.89 178.148 1414.13 178.64C1414.24 178.871 1414.4 179.078 1414.59 179.25C1414.79 179.419 1415.01 179.548 1415.26 179.63C1415.51 179.707 1415.77 179.734 1416.03 179.71C1416.29 179.678 1416.53 179.596 1416.76 179.47C1417.24 179.206 1417.6 178.77 1417.76 178.25C1417.92 177.728 1417.88 177.165 1417.65 176.67C1417.52 176.452 1417.35 176.262 1417.15 176.11C1416.95 175.958 1416.72 175.849 1416.47 175.79L1416.51 175.68Z" fill="#2A323D"/>
<path d="M1428 180.61L1427.86 180.68L1422.68 183.42C1422.57 183.467 1422.45 183.491 1422.33 183.491C1422.21 183.491 1422.09 183.467 1421.98 183.42C1421.75 183.346 1421.56 183.184 1421.45 182.97C1421.34 182.753 1421.32 182.504 1421.38 182.27C1421.46 182.039 1421.61 181.844 1421.82 181.72L1426.19 179.43L1423.93 175.04C1423.82 174.82 1423.8 174.564 1423.87 174.328C1423.95 174.092 1424.11 173.895 1424.33 173.78C1424.55 173.677 1424.81 173.659 1425.04 173.73C1425.27 173.808 1425.47 173.968 1425.59 174.18L1428.25 179.41L1428.33 179.54V179.68C1428.33 179.68 1428.33 179.75 1428.33 179.8V179.89V179.96V180.03V180.14C1428.33 180.183 1428.33 180.227 1428.33 180.27C1428.25 180.3 1428.19 180.346 1428.13 180.405C1428.07 180.463 1428.03 180.533 1428 180.61Z" fill="#2A323D"/>
<path d="M1314 177.08L1303.41 173.73C1303.09 173.629 1302.83 173.407 1302.68 173.113C1302.53 172.818 1302.5 172.476 1302.6 172.16C1302.7 171.846 1302.92 171.584 1303.21 171.43C1303.36 171.35 1303.53 171.302 1303.7 171.288C1303.87 171.274 1304.05 171.295 1304.21 171.35L1314.79 174.71C1314.95 174.758 1315.09 174.837 1315.22 174.942C1315.34 175.046 1315.44 175.175 1315.52 175.32C1315.6 175.465 1315.65 175.623 1315.66 175.787C1315.68 175.95 1315.66 176.115 1315.61 176.272C1315.56 176.428 1315.48 176.573 1315.37 176.698C1315.27 176.824 1315.14 176.926 1314.99 177C1314.84 177.08 1314.67 177.129 1314.5 177.143C1314.33 177.156 1314.16 177.135 1314 177.08Z" fill="#2A323D"/>
<path d="M1307 180.71C1306.69 180.607 1306.42 180.384 1306.27 180.09C1306.12 179.796 1306.09 179.455 1306.19 179.14L1309.55 168.55C1309.65 168.238 1309.87 167.977 1310.16 167.82C1310.45 167.67 1310.8 167.641 1311.11 167.74C1311.27 167.788 1311.41 167.868 1311.54 167.975C1311.66 168.081 1311.77 168.212 1311.84 168.36C1311.99 168.654 1312.02 168.995 1311.92 169.31L1308.57 179.9C1308.47 180.215 1308.24 180.477 1307.95 180.63C1307.66 180.781 1307.31 180.81 1307 180.71Z" fill="#2A323D"/>
<path d="M1445 149.87L1448.13 148.25C1448.2 148.211 1448.27 148.156 1448.32 148.09C1448.38 148.027 1448.42 147.952 1448.45 147.87C1448.46 147.787 1448.46 147.703 1448.45 147.62C1448.45 147.535 1448.42 147.453 1448.38 147.38C1448.34 147.307 1448.29 147.241 1448.23 147.188C1448.16 147.135 1448.09 147.095 1448.01 147.07C1447.93 147.038 1447.85 147.022 1447.77 147.022C1447.69 147.022 1447.61 147.038 1447.53 147.07L1444.4 148.69L1442.77 145.56C1442.74 145.476 1442.69 145.398 1442.63 145.33C1442.57 145.262 1442.49 145.211 1442.4 145.18C1442.32 145.142 1442.22 145.125 1442.13 145.13C1442.04 145.138 1441.95 145.162 1441.87 145.2C1441.79 145.242 1441.72 145.3 1441.66 145.37C1441.6 145.439 1441.56 145.521 1441.54 145.61C1441.52 145.702 1441.52 145.798 1441.54 145.89C1441.56 145.979 1441.59 146.063 1441.64 146.14L1443.27 149.27L1440.14 150.89C1439.99 150.971 1439.88 151.108 1439.83 151.27C1439.77 151.424 1439.77 151.596 1439.83 151.75C1439.91 151.899 1440.05 152.01 1440.21 152.06C1440.38 152.109 1440.56 152.091 1440.71 152.01L1443.84 150.39L1445.46 153.52C1445.5 153.595 1445.56 153.663 1445.62 153.72C1445.68 153.778 1445.76 153.823 1445.84 153.85C1445.98 153.895 1446.12 153.895 1446.26 153.85C1446.33 153.811 1446.4 153.761 1446.45 153.7C1446.51 153.637 1446.55 153.562 1446.57 153.48C1446.59 153.398 1446.59 153.312 1446.57 153.23C1446.56 153.147 1446.54 153.065 1446.5 152.99L1445 149.87Z" fill="#2A323D"/>
<path d="M69.17 487.12C68.4774 487.501 67.6875 487.668 66.9 487.6C66.1116 487.53 65.3608 487.231 64.74 486.74C64.1229 486.244 63.667 485.576 63.43 484.82C63.2504 484.257 63.1976 483.662 63.2753 483.077C63.3531 482.491 63.5595 481.93 63.8798 481.434C64.2001 480.938 64.6262 480.519 65.1276 480.207C65.6291 479.895 66.1934 479.698 66.78 479.63C67.7055 479.516 68.6419 479.728 69.4273 480.231C70.2126 480.734 70.7977 481.495 71.0811 482.384C71.3646 483.272 71.3288 484.232 70.9798 485.097C70.6309 485.961 69.9907 486.677 69.17 487.12Z" fill="#2A323D"/>
<path d="M70.67 474.26C70.5922 474.111 70.5478 473.948 70.54 473.78C70.5392 473.613 70.5804 473.447 70.66 473.3C71.66 471.53 72.5 469.79 73.3 467.99C73.4199 467.747 73.627 467.558 73.88 467.46C74.0047 467.414 74.1373 467.394 74.27 467.4C74.4047 467.403 74.5374 467.434 74.66 467.49C74.9032 467.61 75.0924 467.817 75.19 468.07C75.2902 468.32 75.2902 468.6 75.19 468.85C74.3367 470.71 73.4267 472.527 72.46 474.3C72.4005 474.417 72.3173 474.52 72.2157 474.602C72.1141 474.685 71.9964 474.746 71.87 474.78C71.6449 474.844 71.4046 474.827 71.1909 474.732C70.9771 474.637 70.8034 474.47 70.7 474.26H70.67ZM76.93 459.57C76.8693 459.448 76.832 459.316 76.82 459.18C76.79 459.048 76.79 458.912 76.82 458.78C77.42 456.9 77.96 454.98 78.43 453.07C78.4464 452.931 78.4943 452.798 78.57 452.68C78.6416 452.562 78.7369 452.46 78.85 452.38C78.9686 452.302 79.101 452.248 79.24 452.22C79.3755 452.195 79.5145 452.195 79.65 452.22C79.7862 452.257 79.9148 452.318 80.03 452.4C80.1384 452.49 80.2298 452.598 80.3 452.72C80.3622 452.845 80.3995 452.981 80.41 453.12C80.4383 453.255 80.4383 453.395 80.41 453.53C79.94 455.53 79.41 457.46 78.77 459.38C78.7128 459.568 78.6015 459.735 78.45 459.86C78.2974 459.98 78.1133 460.053 77.92 460.07C77.7233 460.091 77.5249 460.052 77.35 459.96C77.1765 459.871 77.0311 459.736 76.93 459.57ZM80.34 444C80.2396 443.813 80.2011 443.6 80.23 443.39C80.44 441.39 80.66 439.48 80.71 437.51C80.7242 437.245 80.8429 436.997 81.04 436.82C81.2376 436.645 81.4964 436.555 81.76 436.57C82.0232 436.582 82.2711 436.697 82.45 436.89C82.5385 436.987 82.607 437.101 82.6516 437.224C82.6962 437.348 82.7161 437.479 82.71 437.61C82.61 439.61 82.43 441.61 82.19 443.61C82.1746 443.743 82.1339 443.872 82.07 443.99C82.0058 444.105 81.917 444.204 81.81 444.28C81.7056 444.361 81.5869 444.422 81.46 444.46C81.3308 444.48 81.1992 444.48 81.07 444.46C80.9185 444.432 80.7751 444.37 80.65 444.28C80.5281 444.21 80.4225 444.114 80.34 444ZM80.74 428C80.6729 427.872 80.6289 427.733 80.61 427.59C80.47 425.59 80.3 423.59 80.02 421.71C79.9829 421.448 80.0512 421.182 80.21 420.97C80.289 420.865 80.3879 420.776 80.5011 420.709C80.6144 420.642 80.7397 420.598 80.87 420.58C80.9983 420.55 81.1317 420.55 81.26 420.58C81.3879 420.61 81.5075 420.668 81.61 420.75C81.7192 420.824 81.8085 420.923 81.87 421.04C81.9373 421.154 81.9815 421.279 82 421.41C82.28 423.41 82.49 425.41 82.63 427.41C82.6401 427.541 82.6241 427.674 82.5829 427.799C82.5417 427.924 82.4762 428.04 82.39 428.14C82.3031 428.239 82.1974 428.321 82.079 428.379C81.9606 428.437 81.8318 428.472 81.7 428.48C81.5083 428.487 81.3182 428.442 81.15 428.35C80.9809 428.249 80.8425 428.104 80.75 427.93L80.74 428Z" fill="#2A323D"/>
<path d="M80.84 416.58C80.4486 416.798 80.0014 416.896 79.5547 416.86C79.1081 416.824 78.6819 416.657 78.33 416.38C77.9815 416.099 77.7211 415.725 77.58 415.3C77.4449 414.87 77.4449 414.41 77.58 413.98C77.7017 413.548 77.9488 413.162 78.29 412.87C78.6338 412.58 79.054 412.396 79.5 412.34C79.9447 412.293 80.3935 412.377 80.7914 412.581C81.1892 412.786 81.5189 413.101 81.74 413.49C81.8893 413.751 81.9813 414.041 82.01 414.34C82.0525 414.635 82.0286 414.936 81.94 415.22C81.8598 415.507 81.7239 415.776 81.54 416.01C81.3462 416.244 81.1084 416.438 80.84 416.58Z" fill="#2A323D"/>
<path d="M70.07 203.29C70.5107 203.22 70.9622 203.279 71.37 203.46C71.7799 203.648 72.127 203.95 72.37 204.33C72.6107 204.709 72.7294 205.152 72.71 205.6C72.6953 206.049 72.5491 206.483 72.2896 206.849C72.03 207.216 71.6685 207.498 71.25 207.66C70.8284 207.819 70.3693 207.851 69.93 207.75C69.4217 207.626 68.9715 207.331 68.6547 206.915C68.338 206.499 68.1741 205.986 68.1906 205.463C68.207 204.94 68.4027 204.439 68.7449 204.043C69.0871 203.648 69.555 203.382 70.07 203.29Z" fill="#2A323D"/>
<path d="M64.56 210.77C64.5897 210.945 64.5724 211.124 64.51 211.29C64.4528 211.456 64.3528 211.605 64.22 211.72C62.75 213.03 61.32 214.42 59.93 215.82C59.7434 216.007 59.4938 216.117 59.23 216.13C59.0968 216.131 58.9645 216.107 58.84 216.06C58.7164 216.009 58.6042 215.935 58.51 215.84C58.4165 215.749 58.3417 215.64 58.29 215.52C58.2388 215.4 58.2116 215.271 58.21 215.14C58.2088 215.007 58.2326 214.875 58.28 214.75C58.3287 214.631 58.4 214.522 58.49 214.43C59.9 212.98 61.36 211.57 62.84 210.2C62.9422 210.116 63.0569 210.049 63.18 210C63.3022 209.959 63.4313 209.942 63.56 209.95C63.692 209.958 63.8212 209.992 63.94 210.05C64.0593 210.102 64.1652 210.181 64.25 210.28C64.3969 210.411 64.5042 210.581 64.56 210.77ZM53.72 222.51C53.7525 222.646 53.7559 222.788 53.7301 222.926C53.7042 223.064 53.6497 223.195 53.57 223.31C52.38 224.88 51.22 226.51 50.14 228.15C50.0715 228.262 49.9793 228.357 49.87 228.43C49.7618 228.507 49.6394 228.561 49.51 228.59C49.3774 228.61 49.2426 228.61 49.11 228.59C48.9797 228.57 48.8562 228.518 48.75 228.44C48.6381 228.371 48.5425 228.279 48.47 228.17C48.3933 228.062 48.3389 227.939 48.31 227.81C48.2844 227.681 48.2844 227.549 48.31 227.42C48.3299 227.287 48.3813 227.16 48.46 227.05C49.55 225.36 50.73 223.71 51.96 222.05C52.0419 221.948 52.1398 221.86 52.25 221.79C52.3643 221.726 52.49 221.685 52.62 221.67C52.7487 221.644 52.8813 221.644 53.01 221.67C53.1379 221.7 53.2575 221.758 53.36 221.84C53.5636 222.007 53.6929 222.248 53.72 222.51ZM45.28 236.07C45.3107 236.281 45.2795 236.496 45.19 236.69C44.29 238.47 43.46 240.3 42.73 242.08C42.6226 242.32 42.4303 242.513 42.19 242.62C42.0667 242.673 41.9341 242.7 41.8 242.7C41.6693 242.698 41.5402 242.671 41.42 242.62C41.2988 242.569 41.1872 242.498 41.09 242.41C40.9974 242.316 40.9258 242.204 40.88 242.08C40.824 241.961 40.7966 241.831 40.8 241.7C40.7984 241.57 40.8222 241.441 40.87 241.32C41.64 239.46 42.5 237.59 43.4 235.79C43.4551 235.672 43.5342 235.566 43.6323 235.48C43.7305 235.394 43.8455 235.329 43.97 235.29C44.2179 235.195 44.492 235.195 44.74 235.29C44.8812 235.36 45.0038 235.463 45.0976 235.59C45.1915 235.717 45.254 235.864 45.28 236.02V236.07ZM39.53 251C39.5652 251.145 39.5652 251.295 39.53 251.44C39 253.33 38.53 255.27 38.13 257.2C38.0755 257.459 37.9209 257.685 37.7 257.83C37.4798 257.977 37.21 258.031 36.95 257.98C36.8213 257.954 36.699 257.903 36.59 257.83C36.4807 257.757 36.3885 257.662 36.32 257.55C36.2418 257.444 36.1903 257.32 36.17 257.19C36.1401 257.062 36.1401 256.928 36.17 256.8C36.58 254.8 37.04 252.8 37.6 250.89C37.6639 250.676 37.7977 250.489 37.98 250.36C38.1653 250.225 38.3912 250.158 38.62 250.17C38.8456 250.191 39.059 250.282 39.23 250.43C39.3901 250.582 39.4956 250.782 39.53 251Z" fill="#2A323D"/>
<path d="M35.61 261.69C36.0539 261.62 36.5086 261.679 36.92 261.86C37.3277 262.047 37.6718 262.349 37.9099 262.73C38.148 263.11 38.2697 263.551 38.26 264C38.2427 264.448 38.0969 264.882 37.84 265.25C37.5938 265.61 37.2456 265.889 36.84 266.05C36.4219 266.209 35.966 266.24 35.53 266.14C35.0908 266.045 34.6907 265.819 34.382 265.493C34.0733 265.166 33.8704 264.754 33.8 264.31C33.75 264.017 33.7587 263.716 33.8256 263.426C33.8926 263.136 34.0164 262.862 34.19 262.62C34.5296 262.142 35.0366 261.81 35.61 261.69Z" fill="#2A323D"/>
<path d="M62 355.45C64.81 350.23 58.07 330.72 54.38 320.96L49 322.65C51.15 332.46 56.06 351.6 62 355.45Z" fill="#2A323D"/>
<path d="M47.77 316.82C47.77 316.82 48.2 319.14 48.97 322.65L54.4 321C53.11 317.58 52.2 315.36 52.2 315.36L47.77 316.82Z" fill="#2A323D"/>
<path d="M42.4 309.55C42.2571 310.975 42.4524 312.414 42.97 313.75C44.76 318.41 49.6 316.75 49.6 316.75C49.6 316.75 54.6 315.48 52.84 311.11C52.2831 309.83 51.6138 308.602 50.84 307.44C49.8093 308.12 48.6884 308.652 47.51 309.02C45.8624 309.552 44.1217 309.732 42.4 309.55Z" fill="#2A323D"/>
<path d="M49.5 300C49.5 300 43.03 303.65 42.4 309.52C44.1275 309.708 45.8754 309.531 47.53 309C48.7084 308.632 49.8293 308.1 50.86 307.42C50.1099 306.355 49.5999 305.14 49.3651 303.859C49.1303 302.578 49.1763 301.262 49.5 300Z" fill="#2A323D"/>
<path d="M33.34 341.4L31.52 335.56L77.39 321.19L79.21 327.02L33.34 341.4Z" fill="#2A323D"/>
<path d="M37.31 340.19L35.49 334.36L31.49 335.59L33.32 341.42L37.31 340.19Z" fill="#2A323D"/>
<path d="M79.21 327L81.8 324.51L80.99 321.92L77.39 321.17L79.21 327Z" fill="#2A323D"/>
<path d="M83.81 322.38L80.99 321.94L81.8 324.53L83.81 322.38Z" fill="#2A323D"/>
<path d="M44.94 156.17C44.9891 156.297 45.0096 156.434 45 156.57C44.9976 156.706 44.9634 156.84 44.9 156.96C44.8371 157.081 44.7523 157.19 44.65 157.28C44.5486 157.368 44.4291 157.433 44.3 157.47C44.1713 157.496 44.0387 157.496 43.91 157.47C43.7082 157.45 43.5161 157.373 43.3554 157.25C43.1946 157.126 43.0715 156.96 43 156.77L41 150.63C40.9953 150.614 40.9953 150.596 41 150.58C40.9947 150.571 40.992 150.561 40.992 150.55C40.992 150.539 40.9947 150.529 41 150.52C40.9961 150.48 40.9961 150.44 41 150.4C40.9931 150.381 40.9931 150.359 41 150.34C40.9962 150.31 40.9962 150.28 41 150.25V150.18L41.07 150.02V149.93V149.86V149.76V149.71C41.0818 149.666 41.1022 149.626 41.13 149.59L41.26 149.5C41.3026 149.472 41.3501 149.451 41.4 149.44L47.51 147.35C47.6371 147.3 47.7739 147.28 47.91 147.29C48.0461 147.3 48.1789 147.337 48.3 147.4C48.4207 147.459 48.5292 147.541 48.62 147.64C48.7027 147.749 48.7669 147.87 48.81 148C48.855 148.128 48.8754 148.264 48.87 148.4C48.8567 148.535 48.8195 148.668 48.76 148.79C48.7 148.91 48.6147 149.016 48.51 149.1C48.4092 149.191 48.2898 149.259 48.16 149.3L43.25 151L44.94 156.17Z" fill="#2A323D"/>
<path d="M50 159.62C49.947 159.725 49.8759 159.82 49.79 159.9C49.7008 159.979 49.5949 160.037 49.48 160.07C49.3647 160.095 49.2453 160.095 49.13 160.07C49.0156 160.059 48.904 160.029 48.8 159.98C48.6295 159.885 48.4905 159.743 48.4 159.57C48.318 159.392 48.2902 159.194 48.32 159C48.3506 158.93 48.3874 158.863 48.43 158.8L52.68 150.29C52.7944 150.102 52.9772 149.966 53.19 149.91C53.4066 149.849 53.6382 149.87 53.84 149.97C54.0337 150.072 54.1857 150.238 54.27 150.44C54.3424 150.651 54.3424 150.879 54.27 151.09L53 153.64C53.7607 153.593 54.5157 153.798 55.1471 154.225C55.7784 154.652 56.2507 155.276 56.49 156C56.6317 156.445 56.6894 156.913 56.66 157.38C56.6267 157.844 56.5009 158.296 56.29 158.71L54.64 162C54.5931 162.115 54.5253 162.22 54.44 162.31C54.3539 162.4 54.2477 162.469 54.13 162.51C54.0167 162.559 53.8931 162.58 53.77 162.57C53.6443 162.571 53.5204 162.54 53.41 162.48C53.2988 162.424 53.2001 162.346 53.12 162.25C53.0403 162.154 52.9823 162.041 52.95 161.92C52.9252 161.798 52.9252 161.672 52.95 161.55C52.9738 161.427 53.0177 161.309 53.08 161.2L54.71 157.95C54.8293 157.744 54.9075 157.516 54.94 157.28C54.99 157.046 54.99 156.804 54.94 156.57C54.8732 156.338 54.7573 156.123 54.6 155.94C54.4472 155.759 54.2604 155.609 54.05 155.5C53.8355 155.391 53.6002 155.33 53.36 155.32C53.118 155.302 52.8751 155.339 52.65 155.43C52.426 155.514 52.2217 155.643 52.05 155.81C51.8798 155.977 51.7469 156.178 51.66 156.4L50 159.62Z" fill="#2A323D"/>
<path d="M64 156L59.75 164.5C59.699 164.607 59.6264 164.702 59.5369 164.779C59.4475 164.857 59.343 164.915 59.23 164.95C59.0051 165.019 58.7624 165.001 58.55 164.9C58.4428 164.851 58.3473 164.779 58.27 164.69C58.1981 164.599 58.1407 164.498 58.1 164.39C58.0754 164.275 58.0754 164.155 58.1 164.04C58.1097 163.922 58.1402 163.807 58.19 163.7L61.73 156.61L61 156.66C60.8381 156.672 60.676 156.641 60.53 156.57C60.3669 156.471 60.2378 156.324 60.16 156.15C60.092 155.975 60.0747 155.784 60.11 155.6C60.1484 155.414 60.2467 155.245 60.39 155.12C60.5326 154.995 60.7111 154.918 60.9 154.9L63.22 154.74C63.2342 154.751 63.2518 154.758 63.27 154.758C63.2882 154.758 63.3058 154.751 63.32 154.74H63.41C63.4294 154.733 63.4506 154.733 63.47 154.74C63.5068 154.749 63.5411 154.766 63.57 154.79L63.73 154.87C63.7595 154.862 63.7905 154.862 63.82 154.87H63.87C63.93 154.87 63.87 154.94 63.94 154.96V155.03H64.01C64.0147 155.06 64.0147 155.09 64.01 155.12V155.2V155.29V155.37V155.44V155.51V155.61L64 156Z" fill="#2A323D"/>
<path d="M69.62 164.84L69.46 164.89L63.37 167C63.1086 167.081 62.8262 167.059 62.58 166.94C62.4579 166.882 62.3489 166.8 62.2596 166.698C62.1702 166.597 62.1023 166.478 62.06 166.35C62.0102 166.223 61.9897 166.086 62 165.95C62.0095 165.815 62.0434 165.683 62.1 165.56C62.1638 165.442 62.2485 165.337 62.35 165.25C62.4559 165.161 62.5782 165.093 62.71 165.05L67.88 163.33L66.18 158.18C66.1363 158.051 66.1193 157.915 66.13 157.78C66.1336 157.647 66.1678 157.517 66.23 157.4C66.2869 157.275 66.3726 157.165 66.48 157.08C66.5814 156.992 66.7009 156.927 66.83 156.89C67.088 156.809 67.3674 156.83 67.61 156.95C67.7339 157.007 67.8448 157.089 67.936 157.19C68.0271 157.292 68.0966 157.411 68.14 157.54L70.14 163.67C70.1626 163.721 70.1794 163.775 70.19 163.83C70.2053 163.886 70.2053 163.944 70.19 164C70.166 164.038 70.1459 164.078 70.13 164.12V164.21V164.29C70.13 164.29 70.13 164.35 70.13 164.36V164.47L70.06 164.6C69.9317 164.71 69.7818 164.792 69.62 164.84Z" fill="#2A323D"/>
<path d="M76.12 238.57L70.44 235.73C70.2069 235.606 70.0286 235.399 69.94 235.15C69.8589 234.899 69.8804 234.625 70 234.39C70.0551 234.272 70.1342 234.166 70.2323 234.08C70.3305 233.994 70.4455 233.929 70.57 233.89C70.6953 233.847 70.8278 233.829 70.96 233.838C71.0922 233.846 71.2214 233.881 71.34 233.94L77.02 236.78C77.1374 236.839 77.2419 236.921 77.3277 237.02C77.4135 237.12 77.4789 237.235 77.52 237.36C77.599 237.611 77.5812 237.882 77.47 238.12C77.4115 238.239 77.3301 238.345 77.2304 238.432C77.1306 238.519 77.0146 238.585 76.889 238.627C76.7634 238.669 76.6308 238.685 76.4988 238.676C76.3668 238.666 76.238 238.63 76.12 238.57Z" fill="#2A323D"/>
<path d="M71.87 240C71.7526 239.941 71.6481 239.859 71.5623 239.76C71.4765 239.66 71.4112 239.545 71.37 239.42C71.2751 239.176 71.2751 238.904 71.37 238.66L74.23 232.94C74.2891 232.823 74.3707 232.718 74.4703 232.632C74.5698 232.547 74.6852 232.481 74.81 232.44C75.0607 232.361 75.3319 232.379 75.57 232.49C75.6888 232.548 75.7948 232.63 75.8818 232.73C75.9688 232.829 76.0352 232.945 76.0771 233.071C76.1189 233.197 76.1354 233.329 76.1256 233.461C76.1159 233.593 76.0799 233.722 76.02 233.84L73.16 239.55C73.1049 239.668 73.0258 239.774 72.9276 239.86C72.8295 239.946 72.7145 240.011 72.59 240.05C72.3521 240.124 72.0954 240.106 71.87 240Z" fill="#2A323D"/>
<path d="M16.68 368.46C15.6128 367.928 14.6638 367.187 13.89 366.28C12.8285 365.043 12.1258 363.54 11.8578 361.932C11.5899 360.324 11.767 358.674 12.37 357.16C12.9488 355.735 13.8833 354.481 15.0843 353.52C16.2853 352.558 17.7126 351.921 19.2302 351.668C20.7477 351.415 22.3047 351.556 23.7524 352.076C25.2002 352.596 26.4905 353.479 27.5 354.64C28.7874 356.223 29.499 358.196 29.518 360.235C29.5371 362.275 28.8625 364.261 27.6049 365.868C26.3473 367.474 24.5812 368.605 22.5963 369.076C20.6113 369.547 18.5252 369.33 16.68 368.46ZM14.3 362.46C14.5601 363.294 14.9814 364.069 15.54 364.74C16.0916 365.408 16.7717 365.959 17.54 366.36C19.1075 367.15 20.9177 367.311 22.6 366.81C23.8245 366.387 24.9009 365.62 25.7 364.6C26.2953 363.837 26.7189 362.954 26.9419 362.012C27.1649 361.07 27.1821 360.091 26.9922 359.142C26.8024 358.192 26.41 357.295 25.8418 356.511C25.2737 355.728 24.5431 355.076 23.7 354.6L23.58 354.54C22.0707 353.819 20.3433 353.701 18.75 354.21C17.0796 354.748 15.6888 355.923 14.88 357.48C14.0784 359.021 13.9029 360.812 14.39 362.48L14.3 362.46Z" fill="#2A323D"/>
<path d="M3.74 486.93C3.56958 486.856 3.41889 486.743 3.3 486.6C3.1767 486.455 3.08781 486.284 3.04 486.1L0.900003 478.27C0.848295 478.105 0.831268 477.932 0.85 477.76C0.864795 477.587 0.915037 477.418 0.997606 477.265C1.08017 477.112 1.19331 476.978 1.33 476.87C1.46638 476.761 1.62259 476.68 1.79 476.63C1.96159 476.595 2.13841 476.595 2.31 476.63C2.48233 476.656 2.6484 476.714 2.8 476.8C2.94931 476.889 3.07865 477.009 3.18 477.15C3.28702 477.289 3.36214 477.449 3.4 477.62L5.12 483.83L16.27 477.33C16.419 477.241 16.5846 477.184 16.7565 477.161C16.9285 477.139 17.1033 477.152 17.27 477.2C17.4364 477.242 17.5927 477.317 17.73 477.42C17.8673 477.523 17.9829 477.652 18.07 477.8C18.1611 477.948 18.2213 478.113 18.2471 478.285C18.2728 478.457 18.2636 478.632 18.22 478.8C18.1385 479.132 17.9304 479.419 17.64 479.6L5 486.91C4.82677 487.012 4.63105 487.071 4.43 487.08C4.23229 487.096 4.03365 487.065 3.85 486.99L3.74 486.93Z" fill="#2A323D"/>
<path d="M41.54 556.15C41.0491 555.903 40.6676 555.483 40.47 554.97L36.82 545.52C36.706 545.233 36.6551 544.924 36.6706 544.615C36.6861 544.306 36.7678 544.004 36.91 543.73C37.0467 543.455 37.2371 543.21 37.47 543.01C37.7095 542.818 37.9849 542.675 38.28 542.59L48.03 539.82C48.313 539.742 48.6082 539.719 48.9 539.75C49.1888 539.784 49.4677 539.875 49.72 540.02C49.9778 540.158 50.2048 540.347 50.3871 540.576C50.5694 540.804 50.7031 541.068 50.78 541.35C50.8632 541.629 50.887 541.922 50.85 542.21C50.8187 542.501 50.7303 542.783 50.59 543.04C50.4419 543.293 50.2487 543.517 50.02 543.7C49.7927 543.884 49.5309 544.02 49.25 544.1L41.84 546.2L44.61 553.38C44.7773 553.796 44.8122 554.253 44.71 554.69C44.6119 555.128 44.3774 555.524 44.04 555.82C43.7124 556.122 43.301 556.317 42.86 556.38C42.4144 556.439 41.9614 556.362 41.56 556.16L41.54 556.15Z" fill="#2A323D"/>
<path d="M58.93 564.83C58.5296 564.633 58.1985 564.319 57.9806 563.93C57.7627 563.541 57.6683 563.094 57.71 562.65C57.748 562.202 57.9225 561.776 58.21 561.43C58.4978 561.089 58.8808 560.842 59.31 560.72L66.72 558.62L64 551.44C63.7913 550.89 63.8088 550.279 64.0486 549.741C64.2884 549.204 64.731 548.783 65.28 548.57C65.5489 548.456 65.838 548.397 66.13 548.397C66.422 548.397 66.7111 548.456 66.98 548.57C67.2465 548.688 67.487 548.857 67.6878 549.068C67.8886 549.279 68.0457 549.528 68.15 549.8L71.8 559.26C71.9079 559.549 71.9555 559.856 71.94 560.164C71.9245 560.472 71.8463 560.773 71.71 561.05C71.5718 561.326 71.3778 561.571 71.1403 561.769C70.9028 561.967 70.6269 562.114 70.33 562.2L60.54 565C60.0018 565.156 59.4237 565.095 58.93 564.83Z" fill="#2A323D"/>
<path d="M44.42 562.83C44.1963 562.71 43.9909 562.558 43.81 562.38C43.4051 561.953 43.1853 561.384 43.1984 560.796C43.2115 560.207 43.4565 559.648 43.88 559.24L61.67 542.32C61.8729 542.093 62.1218 541.913 62.4 541.79C62.679 541.673 62.9774 541.608 63.28 541.6C63.5825 541.6 63.8819 541.661 64.1603 541.78C64.4386 541.898 64.6902 542.072 64.9 542.29C65.1078 542.51 65.2708 542.768 65.38 543.05C65.4823 543.335 65.5264 543.638 65.51 543.94C65.5004 544.244 65.4217 544.541 65.28 544.81C65.1495 545.083 64.9619 545.325 64.73 545.52L47 562.46C46.6655 562.778 46.2406 562.984 45.7838 563.051C45.3271 563.117 44.8611 563.04 44.45 562.83H44.42Z" fill="#2A323D"/>
</svg>
