<svg width="40" height="40" viewBox="0 0 40 40" fill="none" xmlns="http://www.w3.org/2000/svg">
<path fill-rule="evenodd" clip-rule="evenodd" d="M20 0C31.0378 0 40 8.95021 40 20C40 31.0378 31.0498 40 20 40C8.96221 40 0 31.0498 0 20C0 8.96221 8.95021 0 20 0ZM15.105 12.7055C15.7888 12.7055 16.4127 12.7654 16.9766 12.8854C17.5405 13.0054 18.0204 13.2094 18.4283 13.4733C18.8242 13.7492 19.1362 14.1092 19.3641 14.5651C19.5801 15.009 19.6881 15.5849 19.6881 16.2448C19.6881 16.9646 19.5201 17.5645 19.1962 18.0564C18.8602 18.5363 18.3803 18.9322 17.7325 19.2442C18.6203 19.4961 19.2681 19.94 19.7001 20.5759C20.132 21.2118 20.3479 21.9796 20.3479 22.8794C20.3479 23.6113 20.204 24.2352 19.928 24.763C19.6401 25.2909 19.2681 25.7229 18.8002 26.0588C18.3323 26.3947 17.7804 26.6467 17.1686 26.8026C16.5687 26.9586 15.9448 27.0426 15.2969 27.0426H8.35033V12.7175H15.105V12.7055ZM23.5513 13.8572H29.3581V15.2729H23.5513V13.8572ZM24.847 24.5351C25.2789 24.955 25.8908 25.159 26.6947 25.159C27.2705 25.159 27.7744 25.015 28.1824 24.7271C28.5903 24.4391 28.8422 24.1272 28.9382 23.8032H31.4457C31.0378 25.051 30.4259 25.9388 29.5981 26.4787C28.7702 27.0186 27.7624 27.2825 26.5987 27.2825C25.7828 27.2825 25.051 27.1506 24.3911 26.8866C23.7313 26.6227 23.1794 26.2507 22.7115 25.7708C22.2555 25.2909 21.9076 24.7151 21.6557 24.0432C21.4157 23.3713 21.2837 22.6275 21.2837 21.8356C21.2837 21.0558 21.4157 20.3359 21.6677 19.6641C21.9316 18.9922 22.2795 18.4163 22.7594 17.9244C23.2274 17.4325 23.7912 17.0486 24.4391 16.7726C25.087 16.4847 25.8068 16.3527 26.6107 16.3527C27.4865 16.3527 28.2543 16.5207 28.9142 16.8686C29.5741 17.2046 30.114 17.6725 30.5339 18.2484C30.9538 18.8242 31.2537 19.4841 31.4457 20.216C31.6377 20.9478 31.6977 21.7157 31.6497 22.5315H24.1632C24.1632 23.3473 24.4391 24.1272 24.871 24.5351H24.847ZM28.1224 19.0882C27.7864 18.7163 27.2106 18.5123 26.5147 18.5123C26.0588 18.5123 25.6869 18.5843 25.3869 18.7403C25.087 18.8962 24.847 19.0882 24.6671 19.3161C24.4871 19.5441 24.3551 19.784 24.2831 20.048C24.2112 20.2999 24.1632 20.5279 24.1512 20.7319H28.7942C28.7223 20 28.4703 19.4721 28.1344 19.0882H28.1224ZM14.7091 18.4883C15.2729 18.4883 15.7289 18.3563 16.1008 18.0924C16.4607 17.8284 16.6407 17.3965 16.6407 16.7966C16.6407 16.4607 16.5807 16.1848 16.4607 15.9688C16.3407 15.7528 16.1728 15.5849 15.9688 15.4649C15.7648 15.3449 15.5369 15.2609 15.2729 15.213C15.009 15.165 14.7451 15.141 14.4691 15.141H11.5177V18.4883H14.7091ZM14.877 24.5831C15.189 24.5831 15.4769 24.5591 15.7528 24.4871C16.0408 24.4271 16.2807 24.3311 16.4967 24.1872C16.7007 24.0432 16.8806 23.8632 17.0126 23.6113C17.1446 23.3713 17.2046 23.0594 17.2046 22.6875C17.2046 21.9556 17.0006 21.4277 16.5807 21.1038C16.1728 20.7918 15.6209 20.6359 14.937 20.6359H11.5177V24.5831H14.889V24.5951L14.877 24.5831Z" fill="#00ADB5"/>
</svg>
