<svg width="121" height="121" viewBox="0 0 121 121" fill="none" xmlns="http://www.w3.org/2000/svg">
<circle cx="60.5" cy="60.5" r="60.5" fill="#393E46"/>
<path d="M59.5333 27V47.6957H49.2667C43.6127 47.6957 39 43.0465 39 37.3478C39 31.6491 43.6127 27 49.2667 27H59.5333ZM59.5333 50.6522V71.3478H49.2667C43.6127 71.3478 39 66.6987 39 61C39 55.3013 43.6127 50.6522 49.2667 50.6522H59.5333ZM59.5333 74.3043V84.6522C59.5333 90.3509 54.9207 95 49.2667 95C43.6127 95 39 90.3509 39 84.6522C39 78.9535 43.6127 74.3043 49.2667 74.3043H59.5333ZM83 37.3478C83 43.0465 78.3873 47.6957 72.7333 47.6957H62.4667V27H72.7333C78.3873 27 83 31.6491 83 37.3478ZM72.7333 50.6522C70.0104 50.6522 67.3991 51.7424 65.4737 53.683C63.5483 55.6236 62.4667 58.2556 62.4667 61C62.4667 63.7444 63.5483 66.3764 65.4737 68.317C67.3991 70.2576 70.0104 71.3478 72.7333 71.3478C75.4562 71.3478 78.0676 70.2576 79.993 68.317C81.9183 66.3764 83 63.7444 83 61C83 58.2556 81.9183 55.6236 79.993 53.683C78.0676 51.7424 75.4562 50.6522 72.7333 50.6522Z" fill="#EEEEEE"/>
</svg>
