<svg width="40" height="40" viewBox="0 0 40 40" fill="none" xmlns="http://www.w3.org/2000/svg">
<path d="M17.7549 0.142794C8.53626 1.17432 1.12123 8.80758 0.119205 18.0913C-0.882825 27.7876 4.52814 36.4524 12.7448 39.7532C13.346 39.9595 13.9472 39.5469 13.9472 38.7217V35.4208C13.9472 35.4208 13.1456 35.6271 12.1436 35.6271C9.33788 35.6271 8.13544 33.1515 7.93504 31.7074C7.73463 30.8821 7.33382 30.2632 6.7326 29.6443C6.13139 29.438 5.93098 29.438 5.93098 29.2317C5.93098 28.8191 6.5322 28.8191 6.7326 28.8191C7.93504 28.8191 8.93707 30.2632 9.33788 30.8821C10.3399 32.5326 11.5423 32.9452 12.1436 32.9452C12.9452 32.9452 13.5464 32.7389 13.9472 32.5326C14.1476 31.0884 14.7488 29.6443 15.9513 28.8191C11.3419 27.7876 7.93504 25.1056 7.93504 20.5669C7.93504 18.2976 8.93707 16.0282 10.3399 14.3778C10.1395 13.9652 9.9391 12.9337 9.9391 11.4895C9.9391 10.6643 9.9391 9.42649 10.5403 8.18866C10.5403 8.18866 13.346 8.18866 16.1517 10.8706C17.1537 10.458 18.5566 10.2517 19.9594 10.2517C21.3622 10.2517 22.7651 10.458 23.9675 10.8706C26.5728 8.18866 29.5789 8.18866 29.5789 8.18866C29.9797 9.42649 29.9797 10.6643 29.9797 11.4895C29.9797 13.14 29.7793 13.9652 29.5789 14.3778C30.9817 16.0282 31.9838 18.0913 31.9838 20.5669C31.9838 25.1056 28.5769 27.7876 23.9675 28.8191C25.17 29.8506 25.9716 31.7074 25.9716 33.5641V38.928C25.9716 39.5469 26.5728 40.1658 27.3744 39.9595C34.7894 36.865 40 29.438 40 20.7732C40 8.39497 29.7793 -1.30134 17.7549 0.142794Z" fill="#00ADB5"/>
</svg>
