<svg width="121" height="121" viewBox="0 0 121 121" fill="none" xmlns="http://www.w3.org/2000/svg">
<circle cx="60.5" cy="60.5" r="60.5" fill="#393E46"/>
<path d="M27 23L27.2957 26.459L32.8145 89.0182L33.0116 91.1925L35.0812 91.7854L60.113 98.8023L60.9014 99L61.7884 98.8023L86.8203 91.8843L88.8899 91.2913L89.087 89.117L94.7043 26.459L95 23.0988H91.5507L30.4493 23H27ZM33.8986 29.3251L88.1014 29.4239L82.9768 86.3498L61 92.4772L38.9246 86.3498L33.8986 29.3251ZM41.487 38.8127L43.5565 62.433H70.5594L69.6725 72.6125L61 74.9844H60.9014L52.229 72.6125L51.7362 66.0897H43.8522L44.9362 78.6411L60.9014 83.0884H61L76.9652 78.6411L79.1333 54.6255H50.6522L49.9623 46.6203H79.8232L80.513 38.8127H41.487Z" fill="#EEEEEE"/>
</svg>
