<svg width="121" height="121" viewBox="0 0 121 121" fill="none" xmlns="http://www.w3.org/2000/svg">
<circle cx="60.5" cy="60.5" r="60.5" fill="#00ADB5"/>
<path d="M39.75 27C32.7109 27 27 32.7109 27 39.75V82.25C27 89.2891 32.7109 95 39.75 95H82.25C89.2891 95 95 89.2891 95 82.25V39.75C95 32.7109 89.2891 27 82.25 27H39.75ZM71.4615 44C72.5138 44 73.3516 44.3167 73.9952 44.899C74.649 45.4916 74.976 46.3089 74.976 47.2692C74.976 48.2296 74.6593 48.9958 73.9952 49.5577C73.3516 50.1094 72.5036 50.375 71.4615 50.375C70.399 50.375 69.5919 50.0583 69.0096 49.476C68.4171 48.9038 68.1106 48.1887 68.1106 47.2692C68.1106 46.3498 68.4171 45.5835 69.0096 44.9808C69.5919 44.378 70.399 44 71.4615 44ZM54.2163 44.2452H58.3029C58.4459 44.2452 58.5889 44.3474 58.6298 44.4904L67.1298 73.9135C67.1707 73.9645 67.2115 74.0156 67.2115 74.0769C67.2115 74.2608 67.0583 74.4038 66.8846 74.4038H61.3269C61.1737 74.4038 61.0409 74.3017 61 74.1587L59.2837 67.7019H52.9087L51.1923 74.1587C51.1514 74.3017 51.1004 74.4038 50.9471 74.4038H45.7163C45.6142 74.4038 45.4507 74.3221 45.3894 74.2404C45.3281 74.1587 45.3588 74.0871 45.3894 73.9952L53.8894 44.4904C53.9303 44.3474 54.0733 44.2452 54.2163 44.2452ZM69.0096 52.8269H73.9952C74.1791 52.8269 74.3221 52.97 74.3221 53.1538V74.0769C74.3221 74.2608 74.1791 74.4038 73.9952 74.4038H69.0096C68.8257 74.4038 68.6827 74.2608 68.6827 74.0769V53.1538C68.6827 52.97 68.8257 52.8269 69.0096 52.8269ZM56.1779 53.3173L55.6875 56.3413L54.2163 62.7981H58.2212L56.5865 56.3413L56.1779 53.3173Z" fill="#EEEEEE"/>
</svg>
