<svg width="121" height="121" viewBox="0 0 121 121" fill="none" xmlns="http://www.w3.org/2000/svg">
<circle cx="60.5" cy="60.5" r="60.5" fill="#00ADB5"/>
<path d="M60.9829 23C59.9184 23 58.8539 23.2617 57.9352 23.7879L29.0306 40.51C27.1639 41.5915 26 43.6393 26 45.8023V76.1407C26 78.333 27.1639 80.3515 29.0306 81.433L36.6185 85.8176C40.2935 87.63 41.6039 87.6275 43.2664 87.6275C48.7205 87.6275 51.8399 84.3248 51.8399 78.5956V47.2924C51.8399 46.8247 51.4634 46.4418 50.9967 46.4418H47.3509C46.855 46.4418 46.5021 46.8247 46.5021 47.2924V78.567C46.5021 81.1393 43.8512 83.6525 39.5636 81.5187L31.6283 76.9284C31.3366 76.7823 31.1611 76.4622 31.1611 76.1407V45.8308C31.1611 45.4801 31.3366 45.1841 31.6283 45.0087L60.5329 28.2924C60.7954 28.117 61.147 28.117 61.4387 28.2924L90.3433 45.0087C90.6349 45.1841 90.8104 45.4808 90.8104 45.8023V76.1407C90.8104 76.4622 90.6342 76.7823 90.3717 76.9284L61.4387 93.6791C61.1762 93.8253 60.7954 93.8253 60.5329 93.6791L53.0931 89.2659C52.8889 89.1197 52.6023 89.0919 52.3982 89.2089C50.3273 90.3781 49.9482 90.5234 48.0232 91.1957C47.5565 91.3418 46.8268 91.6331 48.2851 92.4516L57.9352 98.1836C58.8685 98.7097 59.9216 99 60.9716 99C62.0507 99 63.0972 98.7097 64.0306 98.1836L92.9694 81.433C94.8361 80.3515 96 78.333 96 76.1407V45.8308C96 43.6385 94.8361 41.62 92.9694 40.5385L64.0306 23.7879C63.1118 23.2617 62.0475 23 60.9829 23ZM68.7588 46.4017C60.5046 46.4017 55.5768 49.9072 55.5768 55.7534C55.5768 62.0964 60.4722 63.8475 68.4056 64.6367C77.8847 65.5721 78.6139 66.9793 78.6139 68.8501C78.6139 72.0655 76.0224 73.4402 69.9266 73.4402C62.2558 73.4402 60.5629 71.5082 60.0088 67.7082C59.9504 67.2989 59.6025 67.006 59.1941 67.006H55.4287C54.9621 67.006 54.6141 67.3897 54.6141 67.8282C54.6141 72.7097 57.2683 78.5214 69.9266 78.5214C79.0849 78.5214 84.3333 74.9013 84.3333 68.5874C84.3333 62.332 80.1034 60.6627 71.2368 59.4642C62.2243 58.295 61.3191 57.681 61.3191 55.5764C61.3191 53.8225 62.1088 51.5171 68.7588 51.5171C74.6796 51.5171 76.8951 52.7992 77.7993 56.8038C77.8868 57.1838 78.2056 57.4774 78.6139 57.4774H82.3795C82.6128 57.4774 82.8139 57.3616 82.9889 57.1863C83.1347 57.0401 83.2231 56.8042 83.1941 56.5411C82.6106 49.6427 78.0338 46.4017 68.7588 46.4017Z" fill="#EEEEEE"/>
</svg>
