<svg width="40" height="40" viewBox="0 0 40 40" fill="none" xmlns="http://www.w3.org/2000/svg">
<path d="M20 0C8.955 0 0 8.955 0 20C0 31.045 8.955 40 20 40C31.045 40 40 31.045 40 20C40 8.955 31.045 0 20 0ZM12.4933 9.005C13.8967 9.005 14.8317 9.94 14.8317 11.1867C14.8317 12.4333 13.8967 13.3683 12.3383 13.3683C10.935 13.37 10 12.4333 10 11.1867C10 9.94 10.935 9.005 12.4933 9.005ZM15 28.3333H10V15H15V28.3333ZM31.6667 28.3333H26.96V21.0467C26.96 19.0317 25.705 18.5667 25.235 18.5667C24.765 18.5667 23.195 18.8767 23.195 21.0467C23.195 21.3567 23.195 28.3333 23.195 28.3333H18.3333V15H23.1967V16.86C23.8233 15.775 25.0783 15 27.4317 15C29.785 15 31.6667 16.86 31.6667 21.0467V28.3333Z" fill="#00ADB5"/>
</svg>
