<svg width="39" height="39" viewBox="0 0 39 39" fill="none" xmlns="http://www.w3.org/2000/svg">
<path d="M19.2 0C8.596 0 0 8.596 0 19.2C0 29.804 8.596 38.4 19.2 38.4C29.804 38.4 38.4 29.804 38.4 19.2C38.4 8.596 29.804 0 19.2 0ZM11.662 13.2H26.702C27.5 13.2 27.088 14.224 26.654 14.486C26.22 14.746 20.214 18.38 19.988 18.514C19.762 18.648 19.474 18.714 19.182 18.714C18.901 18.7197 18.6235 18.6507 18.378 18.514L11.71 14.486C11.276 14.224 10.866 13.2 11.662 13.2ZM27.2 24.2C27.2 24.62 26.696 25.2 26.312 25.2H12.088C11.704 25.2 11.2 24.62 11.2 24.2V16.906C11.2 16.722 11.196 16.484 11.544 16.686L18.378 20.716C18.6192 20.8634 18.8998 20.9333 19.182 20.916C19.474 20.916 19.686 20.894 19.988 20.716L26.856 16.688C27.204 16.484 27.2 16.724 27.2 16.908V24.2Z" fill="#00ADB5"/>
</svg>
