<svg width="121" height="121" viewBox="0 0 121 121" fill="none" xmlns="http://www.w3.org/2000/svg">
<circle cx="60.5" cy="60.5" r="60.5" fill="#393E46"/>
<path d="M37 27C31.4772 27 27 31.4772 27 37V85C27 90.5228 31.4772 95 37 95H85C90.5228 95 95 90.5229 95 85V37C95 31.4772 90.5229 27 85 27H37ZM41.6979 45.8889H51.895C60.6821 45.8889 61.7305 53.9751 61.7305 55.7318C61.7267 62.7584 56.8129 65.2131 52.2418 65.2131H48.0213V75.7569H41.6979V45.8889ZM48.0213 50.8103V60.299H52.2418C55.0524 60.299 55.7539 58.1911 55.7539 55.7318C55.7577 53.2687 54.7049 50.8103 52.2418 50.8103H48.0213ZM72.9753 53.2674C78.2453 53.2674 81.0547 56.4344 81.0547 60.299H75.0855C75.0855 58.5424 74.3806 57.4878 72.9753 57.4878C71.9213 57.4878 70.865 58.1928 70.865 59.5981C70.865 63.1114 81.0621 62.0547 81.0621 69.7878C81.0583 75.0578 75.7859 76.1111 72.9753 76.1111C67.3539 76.1111 64.5417 72.246 64.5417 68.7326H70.1641C70.1641 71.5433 72.2726 71.898 72.9753 71.898C74.3806 71.898 75.4323 71.1931 75.4323 69.7878C75.4323 66.6258 65.2352 66.9753 65.2352 59.9449C65.2352 54.6749 70.1608 53.2674 72.9753 53.2674Z" fill="#EEEEEE"/>
</svg>
