<svg width="580" height="471" viewBox="0 0 580 471" fill="none" xmlns="http://www.w3.org/2000/svg">
<path fill-rule="evenodd" clip-rule="evenodd" d="M248.605 19.8112C325.931 18.4559 411.8 -25.8201 469.038 26.189C531.74 83.1623 537.949 181.17 516.34 263.087C495.585 341.768 436.201 404.264 361.064 435.502C290.787 464.72 211.974 453.315 144.786 417.562C81.156 383.703 39.564 323.537 20.186 254.114C-0.656243 179.444 -16.4632 89.2597 37.653 33.7497C89.4085 -19.3388 174.475 21.1104 248.605 19.8112Z" fill="#393E46"/>
<path fill-rule="evenodd" clip-rule="evenodd" d="M300.495 37.8812C377.821 36.5259 463.69 -7.75011 520.928 44.259C583.63 101.232 589.839 199.24 568.23 281.157C547.475 359.838 488.092 422.334 412.954 453.572C342.677 482.79 263.865 471.385 196.676 435.632C133.046 401.773 91.4542 341.607 72.0762 272.184C51.2339 197.514 35.427 107.33 89.5431 51.8197C141.299 -1.26883 226.365 39.1805 300.495 37.8812Z" fill="#00ADB5"/>
<path d="M258.992 245V228.368H269.672V230.936H262.016V235.04H268.832V237.56H262.016V242.432H270.248V245H258.992ZM276.679 228.368C277.031 228.976 277.423 229.72 277.855 230.6C278.287 231.48 278.727 232.408 279.175 233.384C279.623 234.344 280.063 235.328 280.495 236.336C280.943 237.328 281.351 238.248 281.719 239.096C282.087 238.248 282.487 237.328 282.919 236.336C283.351 235.328 283.791 234.344 284.239 233.384C284.687 232.408 285.127 231.48 285.559 230.6C285.991 229.72 286.383 228.976 286.735 228.368H289.471C289.615 229.584 289.751 230.88 289.879 232.256C290.007 233.616 290.119 235.016 290.215 236.456C290.327 237.88 290.423 239.32 290.503 240.776C290.599 242.216 290.679 243.624 290.743 245H287.767C287.703 243.064 287.623 241.072 287.527 239.024C287.447 236.976 287.319 234.992 287.143 233.072C286.967 233.44 286.759 233.88 286.519 234.392C286.279 234.904 286.023 235.464 285.751 236.072C285.479 236.664 285.199 237.28 284.911 237.92C284.639 238.56 284.367 239.184 284.095 239.792C283.839 240.384 283.599 240.944 283.375 241.472C283.151 241.984 282.959 242.424 282.799 242.792H280.543C280.383 242.424 280.191 241.976 279.967 241.448C279.743 240.92 279.495 240.36 279.223 239.768C278.967 239.16 278.695 238.536 278.407 237.896C278.135 237.256 277.863 236.64 277.591 236.048C277.319 235.456 277.063 234.904 276.823 234.392C276.583 233.864 276.375 233.424 276.199 233.072C276.023 234.992 275.887 236.976 275.791 239.024C275.711 241.072 275.639 243.064 275.575 245H272.599C272.663 243.624 272.735 242.2 272.815 240.728C272.911 239.256 273.007 237.8 273.103 236.36C273.215 234.904 273.335 233.496 273.463 232.136C273.591 230.776 273.727 229.52 273.871 228.368H276.679ZM304.883 245.192C304.003 245.192 303.115 245.16 302.219 245.096C301.323 245.048 300.539 244.936 299.867 244.76V228.608C300.219 228.544 300.595 228.488 300.995 228.44C301.395 228.376 301.803 228.328 302.219 228.296C302.635 228.264 303.043 228.24 303.443 228.224C303.859 228.208 304.251 228.2 304.619 228.2C305.627 228.2 306.563 228.28 307.427 228.44C308.291 228.584 309.035 228.832 309.659 229.184C310.299 229.536 310.795 230 311.147 230.576C311.499 231.152 311.675 231.864 311.675 232.712C311.675 233.496 311.483 234.168 311.099 234.728C310.731 235.288 310.211 235.736 309.539 236.072C310.547 236.408 311.291 236.904 311.771 237.56C312.251 238.216 312.491 239.048 312.491 240.056C312.491 241.768 311.867 243.056 310.619 243.92C309.371 244.768 307.459 245.192 304.883 245.192ZM302.843 237.512V242.576C303.179 242.608 303.539 242.632 303.923 242.648C304.307 242.664 304.659 242.672 304.979 242.672C305.603 242.672 306.179 242.632 306.707 242.552C307.251 242.472 307.715 242.336 308.099 242.144C308.499 241.936 308.811 241.664 309.035 241.328C309.275 240.992 309.395 240.56 309.395 240.032C309.395 239.088 309.051 238.432 308.363 238.064C307.675 237.696 306.723 237.512 305.507 237.512H302.843ZM302.843 235.136H304.979C306.131 235.136 307.035 234.976 307.691 234.656C308.347 234.32 308.675 233.728 308.675 232.88C308.675 232.08 308.331 231.512 307.643 231.176C306.971 230.84 306.091 230.672 305.003 230.672C304.539 230.672 304.123 230.68 303.755 230.696C303.403 230.712 303.099 230.736 302.843 230.768V235.136ZM320.224 228.2C322.624 228.2 324.456 228.64 325.72 229.52C327 230.4 327.64 231.744 327.64 233.552C327.64 235.808 326.528 237.336 324.304 238.136C324.608 238.504 324.952 238.952 325.336 239.48C325.72 240.008 326.112 240.584 326.512 241.208C326.912 241.816 327.296 242.448 327.664 243.104C328.032 243.744 328.36 244.376 328.648 245H325.264C324.96 244.424 324.632 243.848 324.28 243.272C323.928 242.68 323.568 242.112 323.2 241.568C322.848 241.008 322.496 240.488 322.144 240.008C321.792 239.512 321.464 239.072 321.16 238.688C320.936 238.704 320.744 238.712 320.584 238.712C320.424 238.712 320.272 238.712 320.128 238.712H318.664V245H315.64V228.608C316.376 228.448 317.16 228.344 317.992 228.296C318.824 228.232 319.568 228.2 320.224 228.2ZM320.44 230.816C319.8 230.816 319.208 230.84 318.664 230.888V236.264H319.984C320.72 236.264 321.368 236.224 321.928 236.144C322.488 236.064 322.952 235.92 323.32 235.712C323.704 235.504 323.992 235.224 324.184 234.872C324.376 234.52 324.472 234.072 324.472 233.528C324.472 233.016 324.376 232.584 324.184 232.232C323.992 231.88 323.712 231.6 323.344 231.392C322.992 231.184 322.568 231.04 322.072 230.96C321.576 230.864 321.032 230.816 320.44 230.816ZM330.992 245V228.368H341.672V230.936H334.016V235.04H340.832V237.56H334.016V242.432H342.248V245H330.992ZM349.807 245C348.607 242.408 347.447 239.696 346.327 236.864C345.223 234.032 344.191 231.2 343.231 228.368H346.567C346.951 229.488 347.343 230.632 347.743 231.8C348.143 232.968 348.543 234.12 348.943 235.256C349.343 236.376 349.743 237.464 350.143 238.52C350.543 239.576 350.935 240.544 351.319 241.424C351.687 240.544 352.071 239.584 352.471 238.544C352.871 237.488 353.271 236.392 353.671 235.256C354.087 234.12 354.495 232.968 354.895 231.8C355.295 230.632 355.679 229.488 356.047 228.368H359.287C358.311 231.2 357.271 234.032 356.167 236.864C355.063 239.696 353.911 242.408 352.711 245H349.807ZM361.437 245V228.368H372.117V230.936H364.461V235.04H371.277V237.56H364.461V242.432H372.693V245H361.437Z" fill="#EEEEEE"/>
</svg>
