<svg width="121" height="121" viewBox="0 0 121 121" fill="none" xmlns="http://www.w3.org/2000/svg">
<circle cx="60.5" cy="60.5" r="60.5" fill="#393E46"/>
<path d="M47.2129 23.0337C44.677 22.8653 42.1846 23.3196 40 24.5824C37.0872 26.2661 35.1474 29.1401 34.1054 32.4491C33.0635 35.7579 32.8228 39.5713 33.2032 43.7357C33.2416 44.1576 33.3157 44.5971 33.3672 45.0263C32.9695 45.1965 32.5508 45.353 32.1659 45.5308C28.3736 47.2832 25.1968 49.3964 22.8555 51.9542C20.5142 54.5122 19 57.6325 19 61.0001C19 64.3675 20.5142 67.488 22.8555 70.0458C25.1968 72.6036 28.3736 74.717 32.1659 76.4694C32.5508 76.6472 32.9695 76.8035 33.3672 76.9738C33.3157 77.4029 33.2416 77.8426 33.2032 78.2645C32.8228 82.4288 33.0635 86.2421 34.1054 89.5511C35.1474 92.8601 37.0872 95.734 40 97.4177C42.9128 99.1014 46.3668 99.348 49.75 98.5968C53.1333 97.8457 56.5508 96.1456 59.9629 93.7338C60.3083 93.4896 60.6547 93.2067 61 92.9476C61.3453 93.2067 61.6916 93.4896 62.0371 93.7338C65.4491 96.1456 68.8667 97.8457 72.25 98.5968C75.6333 99.348 79.0872 99.1014 82 97.4177C84.9128 95.734 86.8526 92.8601 87.8945 89.5511C88.9364 86.2421 89.1772 82.4288 88.7968 78.2645C88.7584 77.8426 88.6843 77.4029 88.6329 76.9738C89.0305 76.8035 89.4492 76.6472 89.834 76.4694C93.6264 74.717 96.8032 72.6036 99.1445 70.0458C101.486 67.488 103 64.3675 103 61.0001C103 57.6325 101.486 54.5122 99.1445 51.9542C96.8032 49.3964 93.6264 47.2832 89.834 45.5308C89.4492 45.353 89.0305 45.1965 88.6329 45.0263C88.6843 44.5971 88.7584 44.1576 88.7968 43.7357C89.1772 39.5713 88.9364 35.7579 87.8945 32.4491C86.8526 29.1401 84.9128 26.2661 82 24.5824C79.0872 22.8987 75.6333 22.6522 72.25 23.4033C68.8667 24.1544 65.4491 25.8544 62.0371 28.2664C61.6916 28.5106 61.3453 28.7935 61 29.0524C60.6547 28.7935 60.3083 28.5106 59.9629 28.2664C56.5508 25.8544 53.1333 24.1544 49.75 23.4033C48.9042 23.2155 48.0581 23.0898 47.2129 23.0337ZM46.8204 29.0173C47.3316 29.0559 47.875 29.1407 48.455 29.2696C50.7221 29.7728 53.4372 31.0467 56.3008 33.0415C53.9158 35.3066 51.5686 37.8837 49.3282 40.7673C45.7176 41.268 42.3166 42.0094 39.1679 42.9437C38.8747 39.4649 39.1262 36.4724 39.8242 34.2559C40.5388 31.9865 41.6083 30.5902 43 29.7857C44.0438 29.1825 45.2866 28.9016 46.8204 29.0173ZM75.1796 29.0173C76.7134 28.9016 77.9562 29.1825 79 29.7857C80.3917 30.5902 81.4612 31.9865 82.1758 34.2559C82.8737 36.4724 83.1253 39.4649 82.832 42.9437C79.6834 42.0094 76.2825 41.268 72.6718 40.7673C70.4314 37.8837 68.0842 35.3066 65.6992 33.0415C68.5629 31.0467 71.2779 29.7728 73.545 29.2696C74.125 29.1407 74.6684 29.0559 75.1796 29.0173ZM61 36.8486C62.0545 37.8248 63.107 38.9103 64.1582 40.0459C63.112 40.0088 62.0665 39.9755 61 39.9755C59.9335 39.9755 58.888 40.0088 57.8418 40.0459C58.893 38.9103 59.9455 37.8248 61 36.8486ZM61 45.9825C63.8937 45.9825 66.6982 46.1528 69.3965 46.4401C70.994 48.6359 72.5434 50.9824 73.9903 53.4913C75.4372 56.0003 76.6923 58.5168 77.793 61.0001C76.6923 63.4834 75.4372 65.9997 73.9903 68.5089C72.5434 71.0177 70.994 73.3641 69.3965 75.5601C66.6982 75.8472 63.8937 76.0177 61 76.0177C58.1063 76.0177 55.3018 75.8472 52.6035 75.5601C51.006 73.3641 49.4566 71.0177 48.0097 68.5089C46.5628 65.9997 45.3078 63.4834 44.2071 61.0001C45.3078 58.5168 46.5628 56.0003 48.0097 53.4913C49.4566 50.9824 51.006 48.6359 52.6035 46.4401C55.3018 46.1528 58.1063 45.9825 61 45.9825ZM44.4532 47.7834C43.8981 48.6718 43.3458 49.5631 42.8125 50.4878C42.2792 51.4124 41.7859 52.3369 41.295 53.2624C40.8388 51.7854 40.4281 50.3277 40.1113 48.9273C41.4823 48.5012 42.9459 48.1268 44.4532 47.7834ZM77.5468 47.7834C79.0541 48.1268 80.5177 48.5012 81.8887 48.9273C81.5719 50.3277 81.1612 51.7854 80.705 53.2624C80.2141 52.3369 79.7207 51.4124 79.1875 50.4878C78.6543 49.5631 78.102 48.6718 77.5468 47.7834ZM34.4629 51.0978C35.2296 54.2977 36.2882 57.6163 37.6621 61.0001C36.2882 64.3838 35.2296 67.7024 34.4629 70.9022C31.3084 69.4174 28.8472 67.6993 27.2793 65.9864C25.6736 64.2322 25 62.6091 25 61.0001C25 59.3911 25.6736 57.768 27.2793 56.0138C28.8472 54.3009 31.3084 52.5827 34.4629 51.0978ZM87.5371 51.0978C90.6916 52.5827 93.1528 54.3009 94.7207 56.0138C96.3263 57.768 97 59.3911 97 61.0001C97 62.6091 96.3263 64.2322 94.7207 65.9864C93.1528 67.6993 90.6916 69.4174 87.5371 70.9022C86.7704 67.7024 85.7118 64.3838 84.3379 61.0001C85.7118 57.6163 86.7704 54.2977 87.5371 51.0978ZM61 51.9895C56.065 51.9895 52 56.0593 52 61.0001C52 65.9409 56.065 70.0106 61 70.0106C65.935 70.0106 70 65.9409 70 61.0001C70 56.0593 65.935 51.9895 61 51.9895ZM61 57.9966C62.6925 57.9966 64 59.3056 64 61.0001C64 62.6944 62.6925 64.0036 61 64.0036C59.3075 64.0036 58 62.6944 58 61.0001C58 59.3056 59.3075 57.9966 61 57.9966ZM41.295 68.7376C41.7859 69.6631 42.2792 70.5878 42.8125 71.5124C43.3458 72.437 43.8981 73.3282 44.4532 74.2168C42.9459 73.8732 41.4823 73.4989 40.1113 73.0727C40.4281 71.6725 40.8388 70.2146 41.295 68.7376ZM80.705 68.7376C81.1612 70.2146 81.5719 71.6725 81.8887 73.0727C80.5177 73.4989 79.0541 73.8732 77.5468 74.2168C78.102 73.3282 78.6543 72.437 79.1875 71.5124C79.7207 70.5878 80.2141 69.6631 80.705 68.7376ZM39.1679 79.0563C42.3166 79.9907 45.7176 80.732 49.3282 81.2327C51.5686 84.1165 53.9158 86.6934 56.3008 88.9586C53.4372 90.9533 50.7221 92.2272 48.455 92.7306C46.1348 93.2457 44.3917 93.0188 43 92.2143C41.6083 91.4098 40.5388 90.0136 39.8242 87.7443C39.1262 85.5277 38.8747 82.5352 39.1679 79.0563ZM82.832 79.0563C83.1253 82.5352 82.8737 85.5277 82.1758 87.7443C81.4612 90.0136 80.3917 91.4098 79 92.2143C77.6083 93.0188 75.8652 93.2457 73.545 92.7306C71.2779 92.2272 68.5629 90.9533 65.6992 88.9586C68.0842 86.6934 70.4314 84.1165 72.6718 81.2327C76.2825 80.732 79.6834 79.9907 82.832 79.0563ZM57.8418 81.9543C58.888 81.9914 59.9335 82.0247 61 82.0247C62.0665 82.0247 63.112 81.9914 64.1582 81.9543C63.107 83.0899 62.0545 84.1754 61 85.1514C59.9455 84.1754 58.893 83.0899 57.8418 81.9543Z" fill="#EEEEEE"/>
</svg>
